<?xml version="1.0" encoding="iso-8859-1" ?>
<svg version="1.1" xmlns="http://www.w3.org/2000/svg" xmlns:xlink="http://www.w3.org/1999/xlink" 
    viewBox="0 0 1500 1500" width="1500" height="1500">
    
    
    <!-- ITEM 0 -->
    <g>
        <defs>
            <clipPath id="clip-path-id-viewbox-item-0">
                <rect x="0.0" y="0.0" width="653.846" height="335.223"/>
            </clipPath>
        </defs>
        <g transform="translate(263.0 201.0) rotate(0.0 499.5 256.0) scale(1.5278827124429912 1.5273415010306572)">
            <g clip-path="url(#clip-path-id-viewbox-item-0)" transform="translate(-0.0 -0.0)">
                <title>chalkboard_2</title><g id="Layer_2-i0" data-name="Layer 2"><g id="chalkboard_2-i0"><rect x="18.623" y="1.223" width="634" height="322" stroke-width="2.446" stroke="#1a1a1a" stroke-linecap="round" stroke-linejoin="round" fill="none"></rect><path d="M12.823,323.323h5.8V1.223h-5.8a11.608,11.608,0,0,0-11.6,11.6v298.9A11.608,11.608,0,0,0,12.823,323.323Z" fill="#1a1a1a" stroke="#1a1a1a" stroke-linecap="round" stroke-linejoin="round" stroke-width="2.446"></path><path d="M389.223,335.223h-80a11.288,11.288,0,0,1-11.3-11.3h102.7A11.31,11.31,0,0,1,389.223,335.223Z" fill="#1a1a1a"></path><rect x="18.623" y="1.223" width="634" height="322" fill="#5df3f9"></rect><path d="M18.623,1.223v80c1.5.1,3,.1,4.5.1a103.178,103.178,0,0,0,100.6-80.1Z" fill="#fff"></path><path d="M652.623,1.223h-312.4a195.512,195.512,0,0,0,312.3,231l.1-231Z" fill="#fff"></path><path d="M652.623.023H12.823a12.761,12.761,0,0,0-12.8,12.8v298.9a12.761,12.761,0,0,0,12.8,12.8h5.8a.756.756,0,0,0,.4-.1h633.6a1.155,1.155,0,0,0,1.2-1.2v-322A1.29,1.29,0,0,0,652.623.023Zm-1.3,322H19.823V2.523h631.6l-.1,319.5Z" fill="#1a1a1a"></path></g></g>
            </g>
        </g>
    </g>
    
    <!-- ITEM 1 -->
    <g>
        <defs>
            <clipPath id="clip-path-id-viewbox-item-1">
                <rect x="0.0" y="0.0" width="602.926" height="926.046"/>
            </clipPath>
        </defs>
        <g transform="translate(179.0 311.0) rotate(0.0 336.5 515.5) scale(1.1162232181063678 1.1133356226364564)">
            <g clip-path="url(#clip-path-id-viewbox-item-1)" transform="translate(-0.0 -0.0)">
                <title>man_in_a_suit</title><g id="Layer_2-i1" data-name="Layer 2"><g id="man_in_a_suit-i1"><path d="M161.613,351.968s-17.709,73.758-28.369,88.888L91.465,402.515l20.288-49.344,6.361-18.74,43.5,9.456Z" fill="#f8f95d"></path><path d="M273.368,809.476l3.439,39.372H252.393s-19.6-3.61-19.6-5.5,3.611-6.018,3.611-6.018l-2.751-27.681,39.716-.172Z" fill="#f8f95d"></path><path d="M285.06,874.638l-7.394-35.246L275.088,809.3a1.9,1.9,0,0,0-3.783.344l2.407,29.057c-11.347,7.565-19.772,8.252-24.07,6.189-1.892-1.031-3.095-2.579-3.095-4.47a11.472,11.472,0,0,0-5.158-9.284,8.34,8.34,0,0,0-3.611-1.376L236.4,818.589l34.9-7.565-35.934-1.72v-.344a1.823,1.823,0,1,0-3.61.516l2.579,20.288a18.782,18.782,0,0,0-2.923.86c-1.719.687-5.674,2.751-11.176,5.5-12.894,6.705-34.558,17.88-47.8,20.8a24.4,24.4,0,0,0-6.534,2.235,9.95,9.95,0,0,0-5.5,11.691,10.283,10.283,0,0,0,10.144,8.081h.172l112.787-1.891a1.564,1.564,0,0,0,1.376-.688A3.106,3.106,0,0,0,285.06,874.638Z" fill="#191919"></path><polygon points="459.398 792.971 475.387 845.754 455.615 868.621 433.264 854.35 415.727 808.617 459.398 792.971" fill="#f8f95d"></polygon><path d="M234.856,155.45s-50.2-7.393-95.766.86S53.468,185.2,25.959,208.921s-33.182,54.158-13.582,81.323c19.6,26.994,65.849,55.534,106.081,64.647,0,0,.344-19.945,3.611-30.088S132.9,303.827,132.9,303.827L86.479,274.255s40.4-3.955,58.457-9.284l-14.614,36.621s25.445,14.27,31.463,15.13c5.846,1.031,31.119-34.043,36.449-42.639S211.989,242.1,211.989,240.9s3.266-32.151,3.266-32.151L225.4,180.037Z" fill="#f8f95d"></path><path d="M99.89,346.294c-2.063-1.719-3.611-4.3-4.814-8.081a7.469,7.469,0,0,1-.172-.859c-.86-2.579-1.72-5.33-4.127-7.222a11.785,11.785,0,0,0-6.533-2.063,33.11,33.11,0,0,0-4.126.172,22.5,22.5,0,0,1-4.814,0c-2.235-.172-4.986-1.2-6.018-3.267s-.344-4.642.344-7.049l.172-.859c1.547-6.018-.344-9.113-2.063-10.66a11.069,11.069,0,0,0-4.642-2.063A45.345,45.345,0,0,0,52.781,302.8c-4.3-.172-8.941-.515-19.429-3.266-4.986-1.376-15.989-7.565-17.193-8.6a2.064,2.064,0,0,0-2.579,0,2.065,2.065,0,0,0-.172,2.579,40.023,40.023,0,0,0,5.5,5.33c1.032.86,2.063,1.719,2.923,2.579,2.751,2.579,5.5,4.986,8.081,7.221,2.063,1.719,4.126,3.611,6.361,5.674a101.6,101.6,0,0,0,10.832,8.424c2.407,1.548,4.814,3.267,7.221,4.814a165.772,165.772,0,0,0,15.3,9.629l1.719,1.031c9.113,4.986,16.849,9.112,27.165,11.52h.344a1.892,1.892,0,0,0,1.72-1.032A2.555,2.555,0,0,0,99.89,346.294Z" fill="#fff"></path><path d="M301.393,154.763l2.235,101.1L315.491,361.94H291.077c-.688,0-33.7,1.031-34.73,1.2-1.032,0-45.39,4.127-45.39,4.127l-54.674,8.6,5.158-23.726V317.066l8.081-9.456,31.291-37.481,11.864-18.913,12.207-25.1,8.08-30.432,1.892-40.06Z" fill="#fff"></path><path d="M508.4,96.65s.688,16.162,44.874,40.4c0,0-9.972,37.309-34.73,68.085s-77.369,74.618-162.991,77.369l30.776,110.035s-29.744,31.12-51.236,35.418c0,0-23.9-77.025-30.431-122.587s-8.6-134.794-3.1-150.611c0,0,20.288-.172,62.583,5.673s69.976,13.927,99.548-.343C478.826,152.528,508.4,96.65,508.4,96.65Z" fill="#f8f95d"></path><path d="M175.024,150.98c-28.541,2.235-60.692,9.8-90.264,21.32a203.628,203.628,0,0,0-23.9,10.831C50.718,188.805,41.089,196.2,33.009,202.56A155.078,155.078,0,0,0,19.77,213.907a67.97,67.97,0,0,0-5.846,6.7c-.859,1.2-5.845,7.565-6.017,7.565a2.087,2.087,0,0,0,.172,2.579,1.854,1.854,0,0,0,1.2.516,1.858,1.858,0,0,0,1.2-.516,6.258,6.258,0,0,0,1.375-1.547c1.719-2.063,5.5-7.049,23.039-19.6,8.94-6.362,19.256-10.316,27.337-13.067,5.33-1.719,10.832-3.267,16.677-4.642,18.225-3.955,37.137-4.986,55.534-6.018,8.081-.515,16.5-1.031,24.758-1.719a18.072,18.072,0,0,0,7.909-2.063c2.579-1.719,4.642-5.33,3.267-8.6-.688-1.891-2.236-2.923-3.611-3.954-.688-.516-1.2-1.032-1.719-1.376-1.892-2.063-1.548-5.5-.516-7.908,2.063-4.471,6.533-5.158,10.488-5.5a1.926,1.926,0,0,0,1.719-2.063A1.477,1.477,0,0,0,175.024,150.98Z" fill="#fff"></path><path d="M472.98,151.84a2.078,2.078,0,0,0-2.579.172c-5.5,6.017-16.5,13.582-24.242,14.958-7.049,1.375-9.456,1.031-37.309-1.891-3.611-.344-7.737-.86-12.379-1.376a1.841,1.841,0,0,0-.688,3.611c4.814,1.2,11.519,3.094,16.161,4.814a6.764,6.764,0,0,1,1.032.344c3.267,1.031,13.411,3.782,19.772,11.691,1.032,1.2,1.891,2.579,2.923,3.782,2.407,3.439,4.986,7.05,8.94,9.285a14.608,14.608,0,0,0,6.534,1.547,10.631,10.631,0,0,0,4.642-.86,14.075,14.075,0,0,0,8.081-7.908,27.909,27.909,0,0,0,1.375-8.425v-1.032c.516-9.628,3.611-19.944,7.909-26.649C474.012,153.387,473.84,152.356,472.98,151.84Z" fill="#fff"></path><path d="M515.275,81.692s18.053,22.351,41.608,32.667l-7.909,20.288s-32.5-15.818-40.748-38Z" fill="#fff"></path><path d="M515.275,81.692s13.583-29.572,18.4-38,17.365-18.052,17.365-18.052l7.221-15.818s1.891-8.081,3.439-7.393,2.75,7.393,2.922,9.8c.172,2.579,12.38-13.755,16.334-10.316C584.907,5.183,577.17,14.3,577.17,14.3s14.1-7.049,15.474-3.782c1.548,3.094-11.691,12.723-12.207,13.066S556.2,38.537,558.43,49.2c2.235,10.832,29.4,12.551,29.4,12.551s15.3,3.954,12.895,7.909-14.958,2.923-15.818,3.267c-.859.172-14.1-2.407-18.74,6.017s-13.411,33.871-13.411,33.871S525.075,96.478,515.275,81.692Z" fill="#f8f95d"></path><polygon points="290.217 122.956 293.14 145.822 265.803 164.563 243.108 145.822 245 120.72 290.217 122.956" fill="#f8f95d"></polygon><polygon points="293.14 145.822 301.393 154.763 284.716 181.584 265.803 164.563 293.14 145.822" fill="#fff"></polygon><polygon points="265.803 164.563 243.108 145.822 234.856 155.45 245.515 181.068 265.803 164.563" fill="#fff"></polygon><path d="M234.856,155.45l1.031,21.492-6.533,38-10.66,24.07-14.1,23.383,2.235-19.6-2.235-36.1s-1.72-4.986,4.986-6.018c6.533-1.031,9.972-1.719,4.126-7.049s-11.175-7.221-2.751-15.989C219.21,169.033,234.856,155.45,234.856,155.45Z" fill="#f8f95d"></path><path d="M148.374,312.424l13.239,4.3,17.193-6.534,24.07,8.425,16.506,10.66s-1.719,3.095-7.565,1.719-15.474-3.267-15.474-3.267,7.737,6.362,8.081,6.706c.516.344,12.035,9.112,12.035,9.112s-2.923,3.095-6.018,2.407c-3.094-.516-1.547,1.032-1.547,1.032s1.2,4.126-7.393,3.266-23.554-5.845-23.554-5.845l13.926,12.723s-1.891,3.094-6.362,1.375c-4.642-1.719-14.786-8.6-14.786-8.6s-13.238,3.61-17.708,2.578c-4.643-.859-15.646-5.673-15.646-5.673S140.465,322.567,148.374,312.424Z" fill="#f8f95d"></path><path d="M133.072,303.827l14.443,8.425s-9.285,17.021-10.144,34.73l-18.4-4.814C118.974,342,122.069,313.8,133.072,303.827Z" fill="#fff"></path><path d="M158.174,391.684s41.608-7.909,89.92-13.411,70.492-2.579,70.492-2.579l39.372,40.232L459.4,792.971,392.86,816.525,318.586,604.534,259.442,443.951l4.126,126.025,9.628,239.5H211.473L192.217,671.759,171.757,525.79Z" fill="#f8f95d"></path><polygon points="257.379 410.596 246.891 411.972 243.624 379.305 238.466 379.133 240.873 418.505 257.894 418.505 257.379 410.596" fill="#fff"></polygon><path d="M165.224,390.308l53.642,419.168h-7.221s-26.477-167.461-34.73-246.549L158.346,391.856Z" fill="#fff"></path><polyline points="349.018 421.084 447.362 797.269 459.398 792.971 357.958 416.098 349.018 421.084" fill="#fff"></polyline><path d="M318.93,203.419,305.519,271.5,324.26,216.83c0-.172,4.126-9.456-5.33-13.411" fill="#fff"></path><path d="M204.08,203.075c-.86,1.032,2.235,45.562,2.235,45.562l6.018-48.484S206.659,200.325,204.08,203.075Z" fill="#fff"></path><path d="M318.586,373.975h-.344L316.179,364a2.505,2.505,0,0,0,1.032-1.547,1.768,1.768,0,0,0-1.72-1.892c-69.632-3.61-144.938,10.488-159.208,13.411a1.943,1.943,0,0,0-1.547,2.235,1.99,1.99,0,0,0,1.719,1.547h.172l1.2,12.379h-.172a1.832,1.832,0,0,0-1.376,2.235A1.992,1.992,0,0,0,158,393.919h.344c59.489-13.411,131.7-15.646,160.068-15.99a1.907,1.907,0,0,0,1.891-1.891A1.734,1.734,0,0,0,318.586,373.975Z" fill="#191919"></path><path d="M256.691,376.038l-18.4,1.547a6.061,6.061,0,0,1-6.361-6.017V371.4a5.966,5.966,0,0,1,5.5-5.846l18.4-1.2a5.912,5.912,0,0,1,6.362,6.189h0A6.061,6.061,0,0,1,256.691,376.038Z" fill="#f8f95d"></path><polygon points="275.947 174.879 270.101 186.914 272.337 222.16 279.214 315.862 257.379 345.95 235.887 311.392 259.614 185.367 255.315 173.503 265.803 164.563 275.947 174.879" fill="#f8f95d"></polygon><path d="M271.993,187.258l5.673-11.692a1.922,1.922,0,1,0-3.438-1.719l-5.33,10.832-8.081-1.2-3.782-10.831a1.9,1.9,0,1,0-3.611,1.2l3.954,11.519L233.652,312.424a3.35,3.35,0,0,0,.172,1.375l21.835,33.183a1.808,1.808,0,0,0,1.548.859h0a1.869,1.869,0,0,0,1.547-.687L280.589,318.1a2.482,2.482,0,0,0,.344-1.2Zm-11,.172,7.393,1.031,1.2,18.225L254.8,220.612Zm9.628,34.386,1.032,13.926-23.9,22.523,4.3-22.695Zm2.063,29.056.688,10.832-31.807,29.228,3.782-19.944ZM238.81,305.89l35.762-27.337.687,9.972-33.182,30.948-4.642-6.878Zm18.569,36.793-10.66-16.161,29.572-22.179.86,11.863Z" fill="#191919"></path><path d="M156.455,377.585h-.344a1.719,1.719,0,0,1-1.375-2.235l5.158-23.726a1.856,1.856,0,1,1,3.61.86l-5.158,23.726A1.862,1.862,0,0,1,156.455,377.585Z" fill="#191919"></path><path d="M221.1,326.866c-8.768-6.534-37.137-18.4-41.435-18.4h0c-2.063,0-6.362,1.547-10.316,3.1,6.189-6.877,16.333-18.225,26.821-32.151l.172-.172c1.2-1.548,2.235-3.095,3.267-4.642a288.352,288.352,0,0,0,21.319-34.387c20.288-39.888,16.506-84.246,16.506-85.277h0v-.172h0v-.172h0v-.172h0v-.172h0v-.172h0l-.172-.172-.172-.172h-.172l-.172-.172h-.516c-1.375-.172-60-7.049-102.643,2.235-33.011,7.393-63.958,19.772-87.169,35.246C20.629,208.233,4.812,228.349.857,249.325c-4.126,21.147,6.706,43.326,31.12,63.786,19.772,16.849,47.969,31.463,78.229,40.92-12.38,31.979-19.6,47.625-19.773,47.625a1.926,1.926,0,0,0,.516,2.235l41.779,38.34a1.561,1.561,0,0,0,1.2.516h.344a2.673,2.673,0,0,0,1.375-1.032c15.99-35.073,26.478-80.291,28.2-88.2,1.375-.344,2.751-.688,4.3-1.032,1.032-.172,2.235-.516,2.923-.687l.344.343c5.158,3.955,12.551,8.941,18.053,8.941h1.2a6.1,6.1,0,0,0,4.3-2.407,1.865,1.865,0,0,0-.344-2.579l-10.832-8.6c7.049,2.235,15.99,4.814,21.319,4.986h.688a6.221,6.221,0,0,0,4.642-1.719,5.821,5.821,0,0,0,1.548-3.1h1.2c2.751,0,5.5-1.375,6.362-3.266a2.956,2.956,0,0,0-1.032-3.611c-3.782-2.751-9.972-6.7-15.646-10.316,5.674,1.719,11.52,3.267,15.13,3.267h0c2.407,0,4.3-1.2,4.814-3.095C222.305,329.445,222.305,327.725,221.1,326.866Zm-3.782-88.029c-3.267,6.361-6.878,12.551-10.66,18.569,3.61-15.3,1.375-30.948-.172-41.78-.688-4.986-1.547-10.316-.86-11.519,1.2-2.235,3.095-2.235,6.018-2.063,2.407.172,5.674.344,6.877-2.751,1.548-3.611-1.547-5.5-4.126-7.221-2.235-1.548-4.814-3.267-6.018-6.19,0-.172-1.2-3.266,12.723-16.161,4.642-4.3,9.456-8.425,12.379-10.66C234,170.065,234,205.826,217.319,238.837Zm-213.539,11C7.563,229.9,22.693,210.64,47.8,194.135c22.866-15.13,53.47-27.509,85.965-34.73,35.418-7.909,82.355-4.126,96.969-2.751-3.094,2.407-7.565,6.19-11.863,10.316-11,10.144-15.13,16.5-13.582,20.46,1.719,3.954,4.985,6.189,7.393,7.908s2.922,2.236,2.75,2.751-1.031.516-3.266.516c-2.923-.172-7.221-.516-9.628,3.955-1.2,2.235-.516,6.533.515,13.754,2.064,14.442,5.5,38-6.533,56.737A404.517,404.517,0,0,1,161.441,315L148.89,310.36l-14.442-7.909h0c-.516-.171-.86-.515-1.375-.687,8.424-19.085,12.894-32.839,13.754-35.418a100.839,100.839,0,0,0,19.256-8.6,1.887,1.887,0,1,0-1.891-3.266,85.065,85.065,0,0,1-16.5,7.565c-30.432,6.017-47.8-7.737-59.317-16.678-3.61-2.922-6.877-5.329-9.628-6.533-5.673-2.579-10.316-2.751-13.754-.86a10.564,10.564,0,0,0-4.814,7.737c-.86,6.018,5.5,11.176,6.361,11.863s9.284,8.6,20.8,18.053l.516.344H88.2c12.379,9.972,28.2,21.491,42.467,28.713a65.966,65.966,0,0,0-11,23.726,117.029,117.029,0,0,0-2.579,24.07c-32.151-9.112-62.239-24.414-83.215-42.123C4.124,285.258,1.029,263.6,3.78,249.841Zm132.043,95.593-14.786-3.782a100.284,100.284,0,0,1,1.892-12.551,61.591,61.591,0,0,1,10.659-23.039l11.52,6.362C143.044,316.55,137.715,327.9,135.823,345.434Zm-19.084-72.383a208.9,208.9,0,0,0,25.446-5.673c-1.72,5.329-6.018,17.021-12.723,32.323-12.035-6.362-24.758-15.474-35.59-24.071A207.873,207.873,0,0,0,116.739,273.051Zm15.818,164.71L93.528,402c1.892-4.3,8.769-19.772,19.257-46.937,1.547.515,3.266,1.031,4.814,1.375h.172a3.779,3.779,0,0,0,1.375.172,5.292,5.292,0,0,0,2.235-.516,6.875,6.875,0,0,0,2.063-1.719,15.322,15.322,0,0,0,4.127-7.393l9.112,2.235c1.2.344,12.723,4.3,15.646,5.33,1.2.344,3.438.172,6.533-.516C156.627,365.378,147,405.438,132.557,437.761ZM218.35,329.617a2,2,0,0,1-1.2.344h0c-8.081,0-30.432-8.769-30.776-8.941h-1.719l-.172.172-.172.172-.172.172a.168.168,0,0,1-.172.172h0v.344h0v1.719l.172.172a.168.168,0,0,0,.172.172l.172.172a.168.168,0,0,1,.172.172h0c.172.172,20.975,12.207,30.088,18.912a5.292,5.292,0,0,1-3.095.516c-2.751-.344-20.46-8.424-31.12-13.239a1.922,1.922,0,1,0-1.719,3.439c1.375.688,8.425,3.954,15.646,7.049l12.379,6.534-.172.172a3.6,3.6,0,0,1-2.407.515c-8.941-.515-30.432-8.252-30.6-8.424H172.1a.168.168,0,0,0-.172.172l-.172.172-.172.172h0a.168.168,0,0,1-.172.171v.172h0v1.548a.168.168,0,0,0,.172.172l.172.172.172.172h0l17.537,13.582h0c-3.267.516-8.769-2.235-16.506-8.081-1.031-.687-1.2-.859-1.547-1.031-.688-.172-1.2-.172-4.986.86-1.2.343-3.095.859-4.986,1.2a1.034,1.034,0,0,0-.688.172c-3.094.688-6.361,1.375-7.221,1.032-2.407-.688-10.831-3.611-14.27-4.814,1.891-17.365,7.221-28.885,9.284-32.5l12.379,4.642H162.3c5.33-2.407,14.614-6.362,17.193-6.362h0c3.267.688,29.744,11.519,38.856,18.053Z" fill="#191919"></path><path d="M110.721,226.458c-2.407-1.547-10.659-6.361-14.786-1.547-2.235,2.407-1.547,6.017-.344,8.252,2.236,4.3,6.534,7.05,10.316,9.113,2.064,1.031,4.3,2.235,7.05,2.235h0c2.75,0,6.017-1.548,6.877-4.642h0C121.553,233.507,113.3,228.177,110.721,226.458Z" fill="#fff"></path><path d="M602.788,67.594c-1.2-4.986-11.863-7.049-25.79-9.113-3.266-.515-6.533-1.031-7.565-1.375-4.814-1.547-8.08-4.642-9.112-7.909-.86-3.1.172-6.533,3.267-10.316,1.547-1.891,6.705-5.5,11.691-9.112,14.442-10.488,21.148-15.818,19.084-19.944a2.45,2.45,0,0,0-1.719-1.376c-1.031-.343-2.751-1.031-12.379,2.751,1.891-2.579,3.439-5.33,3.267-7.565A4.494,4.494,0,0,0,581.984.541c-1.547-1.2-3.954-1.2-15.645,8.768.172-2.923-.344-5.33-1.548-6.877A3.926,3.926,0,0,0,561.525.713c-3.611.171-4.3,3.266-5.846,8.768a17.638,17.638,0,0,1-.688,2.407c-1.547,5.846-8.425,14.958-9.456,16.505a55.077,55.077,0,0,0-13.583,14.615l-4.986,8.08a.168.168,0,0,1-.172.172l-13.41,29.916-6.878,14.786c-.171.516-25.273,50.72-43.326,62.583-9.8,6.362-28.541,12.379-87.685,2.407-31.12-5.33-67.569-7.393-73.243-7.737l-7.565-7.908-4.814-24.587a1.922,1.922,0,1,0-3.782.688l4.814,23.9L265.8,162.5,245,145.307l2.407-28.2a1.9,1.9,0,0,0-3.782-.344l-2.407,28.541-7.393,8.94a1.872,1.872,0,0,0-.344,1.891l10.488,26.306a1.475,1.475,0,0,0,1.2,1.031h.516a1.561,1.561,0,0,0,1.2-.516l18.74-15.989,17.537,17.537a1.952,1.952,0,0,0,1.375.516h.172a1.754,1.754,0,0,0,1.376-.86l12.723-21.319a589.559,589.559,0,0,0-1.548,77.2c.688,17.365,2.235,37.824,4.986,60.519v.516a.632.632,0,0,0,.172.516c4.986,38.34,14.271,82.7,30.948,127.057a1.551,1.551,0,0,0,1.031,1.032,1.47,1.47,0,0,0,1.376,0c1.375-.516,33.355-13.411,52.1-35.934a2,2,0,0,0,.344-1.719L358.3,284.571c.688,0,1.719-.172,2.751-.172a212.919,212.919,0,0,0,34.558-4.127,228.584,228.584,0,0,0,68.945-25.617c.172,0,.172-.172.343-.172,4.986-2.923,9.972-6.018,14.958-9.456,30.6-21.492,49.517-49.345,59.832-69.117,11.348-21.319,15.3-37.481,15.474-38.168v-1.548a.168.168,0,0,0-.172-.172l-.172-.172-.171-.172a.168.168,0,0,1-.172-.172H554.3c-1.032-.515-1.891-1.031-2.751-1.547l7.221-18.74a1.707,1.707,0,0,0-.86-2.236c-.687-.343-1.547-.859-2.235-1.2C558.946,98.713,566,78.425,572.185,76.018c2.235-.859,7.393-1.031,12.207-1.2,9.628-.172,15.645-.516,17.881-3.611A5.231,5.231,0,0,0,602.788,67.594Zm-356.241,110.9-9.112-22.867,5.845-7.049,19.428,15.99ZM564.619,15.671l.172-.172c6.877-6.018,12.723-10.66,14.958-11.692,0,2.235-4.3,7.393-7.393,10.488-3.782,1.719-8.252,3.783-13.582,6.533C560.837,18.937,562.728,17.218,564.619,15.671ZM558.6,12.748c.172-.86.516-1.72.688-2.407,1.031-3.955,1.547-6.018,2.407-6.018.687.172,1.719,3.267.171,8.769-.171.172-.343.172-.515.343-1.72,1.548-3.267,2.923-4.814,4.471A40.45,40.45,0,0,0,558.6,12.748ZM284.028,180.209l-15.3-15.3L292.968,148.4l6.362,6.534Zm16.849,59.66c-1.547-40.576.86-70.664,2.063-80.98,15.99,17.021,25.446,30.088,25.274,32.667-1.2,1.375-4.126,1.719-6.533,1.891-2.751.172-5.33.516-6.877,2.235a4.31,4.31,0,0,0-.86,3.267c.344,3.267,3.095,4.986,5.33,6.7,2.751,1.892,4.47,3.267,4.47,6.018,0,1.719-2.063,7.393-4.642,13.754-4.986,13.239-12.551,32.667-15.474,52.439C302.253,264.111,301.393,251.388,300.877,239.869Zm235.374-66.022c-10.144,19.428-28.713,46.937-58.8,67.913-4.986,3.439-9.8,6.533-14.786,9.456-25.1,9.456-47.625,12.207-67.225,7.737a57.863,57.863,0,0,0-5.845-1.375A83.527,83.527,0,0,0,376.527,255c-6.018-.516-11,.172-14.958,2.407-5.33,2.922-11.348,12.894-7.909,25.1v.515l30.432,109.005c-15.646,18.4-41.264,30.431-48.141,33.354-16.162-43.842-25.274-87.341-30.088-125.166-1.719-25.445,9.628-55.361,16.5-73.242,3.267-8.6,4.815-12.895,4.815-15.13,0-4.814-3.439-7.049-6.018-9.113-2.235-1.547-3.611-2.578-3.783-4.126v-.516c.516-.515,2.751-.687,4.3-.859,3.094-.344,7.049-.688,9.284-3.439,2.063-2.407.516-7.393-12.723-23.039-4.642-5.5-9.284-10.659-12.379-13.926,11.519.688,42.123,2.923,68.944,7.565,17.537,2.923,35.762,5.5,52.095,5.5,15.3,0,28.885-2.235,38.341-8.425,15.99-10.488,36.278-47.8,42.639-60,3.267,6.533,13.067,19.944,42.983,36.621C549.833,142.212,545.535,156.482,536.251,173.847ZM548.114,131.9c-32.151-18.912-37.137-32.495-37.825-35.074l5.33-11.347c4.126,5.157,14.958,17.021,38.856,29.916Zm50.892-63.1c-1.376,1.72-9.457,1.892-14.958,2.063s-10.66.172-13.583,1.376c-9.284,3.61-16.5,28.884-18.569,37.481-23.21-13.239-32.5-25.1-34.73-28.2l12.895-28.884,4.814-7.909a45.9,45.9,0,0,1,18.569-17.193c27.165-13.927,34.9-15.818,36.965-15.99-1.376,3.095-12.207,11-17.709,14.786-5.674,4.127-10.66,7.565-12.379,9.8-3.783,4.814-5.158,9.457-3.954,13.755,1.2,4.642,5.5,8.253,11.347,10.316a47.1,47.1,0,0,0,8.253,1.547c4.642.688,10.316,1.719,15.13,2.923,7.049,1.891,7.565,3.439,7.565,3.439C599.178,68.625,599.178,68.8,599.006,68.8Z" fill="#191919"></path><path d="M247.407,45.587s-12.208,15.129-5.5,41.263c6.533,26.134,38.684,19.428,38.684,19.428l24.243-17.021s4.126-23.039-6.19-31.463S247.407,45.587,247.407,45.587Z" fill="#f8f95d"></path><path d="M243.108,71.376s-12.207-7.393-16.849-4.3c-4.814,3.267,2.923,17.881,12.035,21.319S243.108,71.376,243.108,71.376Z" fill="#f8f95d"></path><path d="M318.586,67.078s-7.909-3.611-17.021,7.909c-9.112,11.691-2.235,15.989.516,15.13C304.66,89.257,321.681,80.66,318.586,67.078Z" fill="#f8f95d"></path><path d="M249.814,71.376a6.655,6.655,0,0,0,1.891,1.032,15.331,15.331,0,0,0,7.393.516c.516-.172,1.2-.172,1.547-.688,2.923-2.407-2.923-5.846-4.986-6.018S246.891,68.625,249.814,71.376Z" fill="#181818"></path><path d="M282.137,71.892a2.5,2.5,0,0,0,1.547,1.032,11.413,11.413,0,0,0,4.814.859c3.267,0,6.018-3.954,1.719-4.986C288.5,68.625,279.73,68.281,282.137,71.892Z" fill="#181818"></path><ellipse cx="257.551" cy="81.004" rx="9.972" ry="4.642" fill="#fff"></ellipse><path d="M257.551,74.3c-6.878,0-11.864,2.751-11.864,6.533s5.158,6.534,11.864,6.534,11.863-2.751,11.863-6.534S264.256,74.3,257.551,74.3Zm3.954,8.94a4.865,4.865,0,0,0-4.986-2.407,4.447,4.447,0,0,0-3.267,2.236c-2.407-.688-3.782-1.72-3.782-2.236,0-1.031,3.266-2.75,8.081-2.75s8.08,1.891,8.08,2.75C265.631,81.52,264.084,82.724,261.505,83.239Z" fill="#181818"></path><ellipse cx="286.951" cy="81.004" rx="9.972" ry="4.642" fill="#fff"></ellipse><path d="M286.951,74.3c-6.877,0-11.863,2.751-11.863,6.533s5.157,6.534,11.863,6.534,11.863-2.751,11.863-6.534S293.828,74.3,286.951,74.3Zm3.954,8.94a4.864,4.864,0,0,0-4.986-2.407,4.447,4.447,0,0,0-3.267,2.236c-2.407-.688-3.782-1.72-3.782-2.236,0-1.031,3.267-2.75,8.081-2.75s8.081,1.891,8.081,2.75C295.031,81.52,293.656,82.724,290.9,83.239Z" fill="#181818"></path><path d="M267.523,97.51c-2.236,0-4.127-.516-4.815-2.235-1.375-3.095,3.095-6.534,4.986-7.737a2.859,2.859,0,0,0,1.72-2.407c0-1.892-3.095-4.3-4.47-5.158a1.887,1.887,0,0,1,1.891-3.267c.688.344,6.189,3.783,6.361,8.253,0,1.547-.516,3.61-3.438,5.674a12.794,12.794,0,0,0-3.439,3.094c.688.172,2.407.172,6.361-.516a1.856,1.856,0,1,1,.86,3.611A37.976,37.976,0,0,1,267.523,97.51Z" fill="#191919"></path><path d="M319.79,65.7c-2.064-1.719-6.19-3.266-13.239,2.579a41.936,41.936,0,0,0-2.063-7.393,15.3,15.3,0,0,0,6.877-11.519c.516-5.33-.688-9.8-3.439-13.239a19.716,19.716,0,0,0-11.347-6.017c-4.126-6.534-8.941-10.488-14.442-11.52a17.924,17.924,0,0,0-12.207,2.235,20.268,20.268,0,0,0-14.958-8.6,14.464,14.464,0,0,0-12.723,5.674c-4.127,5.33-5.5,11-4.127,17.193a30.874,30.874,0,0,0,6.706,12.551,65.356,65.356,0,0,0-6.534,20.8c-7.049-6.189-11.347-4.47-13.238-2.75s-2.579,4.642-1.548,8.252c1.2,4.814,4.986,9.972,10.316,13.239-3.267,3.095-4.642,9.456-3.439,16.5a34.038,34.038,0,0,0,20.632,26.134,55.539,55.539,0,0,0,21.32,4.3,39.215,39.215,0,0,0,7.736-.688c8.081-1.375,15.3-4.986,19.6-9.8,6.361-7.049,10.487-22.7,8.424-31.463a12.951,12.951,0,0,0-1.2-3.1,24.708,24.708,0,0,0,14.442-15.3C322.2,70.345,321.681,67.25,319.79,65.7Zm-92.671,7.222c-.516-2.064-.516-3.783.344-4.471,2.922-2.407,8.252,2.407,10.487,4.814a48.6,48.6,0,0,0,1.032,11,7.165,7.165,0,0,0-1.719.688A21.21,21.21,0,0,1,227.119,72.924Zm61.723,18.224c-4.986,3.439-10.66,7.221-17.193,7.565h0c-5.33.344-12.895-.344-18.741-6.017l-2.579-2.579c-2.235-2.407-4.642-4.814-7.393-5.846-3.61-13.926,1.72-27.853,4.643-33.7A60.385,60.385,0,0,0,263.224,61.92a46,46,0,0,0,20.632,4.642,39.677,39.677,0,0,0,17.365-3.61,47.072,47.072,0,0,1,2.235,9.112v.516a31.142,31.142,0,0,1-1.031,13.066v.172C298.126,84.787,293.828,87.882,288.842,91.148Zm28.884-18.224c-1.2,4.642-5.329,9.8-11.175,12.379a34.8,34.8,0,0,0,.688-12.551c2.579-2.579,7.393-6.534,10.144-4.3C318.242,69.141,318.242,70.86,317.726,72.924Z" fill="#191919"></path><path d="M265.115,112.468l18.741-5.846s-1.891,8.081-8.081,10.316C267.694,119.689,265.115,112.468,265.115,112.468Z" fill="#fff"></path><path d="M524.9,908.509c-12.379-20.46-44.7-60-47.8-63.787l-15.99-52.439L359.85,415.41a1.856,1.856,0,0,0-3.611.86l100.923,375.5-63.1,22.351c-4.814-14.1-37.481-108.316-68.429-195.657a1.94,1.94,0,0,0,.516-1.891c-2.923-8.425.516-18.913,8.081-24.071a12.813,12.813,0,0,1,2.063-1.2c3.611-2.235,7.565-4.642,7.909-9.113.516-5.329-4.642-9.112-7.393-11.175a161.227,161.227,0,0,1-47.453-55.19c-.172-.516-.516-.688-1.032-.86-7.565-20.631-13.754-36.621-17.537-45.389l-10.316-29.057-.515-22.007h0l-2.407-40.232a1.9,1.9,0,0,0-3.783.344L256,416.786H242.764l-2.407-37.481a1.9,1.9,0,1,0-3.782.344l2.579,39.2a1.767,1.767,0,0,0,1.891,1.719h15.13l.516,20.632h0l14.958,366.557H213.364c-17.709-91.123-36.793-260.3-47.109-357.789l.172-.171c14.958-16.162,9.456-59.489,9.112-61.38a1.823,1.823,0,0,0-3.61.516c0,.344,4.986,39.028-6.19,55.706-4.3-41.092-7.049-68.085-7.049-68.945a1.9,1.9,0,1,0-3.782.344c.344,3.095,29.4,302.255,55.19,433.782a2.013,2.013,0,0,0,1.891,1.548h61.723a1.776,1.776,0,0,0,1.891-1.892L260.645,453.063l6.362,17.881v.172c21.835,50.376,122.93,343.346,123.962,346.269A1.551,1.551,0,0,0,392,818.417a1.286,1.286,0,0,0,.859.172,1.034,1.034,0,0,0,.688-.172l21.148-7.565,16.677,44.014c1.2,7.565,3.1,19.944,3.1,21.319,0,1.032,0,1.72,8.94,8.6,4.986,3.782,11.691,8.94,19.084,14.1,13.411,9.628,29.916,20.976,36.106,23.9a31.275,31.275,0,0,0,13.41,3.267c4.987,0,9.457-1.548,12.208-4.643C527.482,917.965,527.654,913.151,524.9,908.509ZM459.054,798.473l13.41,44.014c-4.47-1.547-8.08-1.547-11-.172-5.33,2.579-6.877,9.284-8.081,14.1-.516,2.064-1.032,4.471-1.719,5.158-1.032,1.2-8.081-1.547-17.021-8.424l-12.723-33.355Z" fill="#191919"></path><ellipse cx="321.179" cy="326.362" rx="5.502" ry="6.877" transform="translate(-34.879 38.454) rotate(-6.5)" fill="#191919"></ellipse><ellipse cx="328.412" cy="352.836" rx="5.502" ry="6.877" transform="translate(-37.829 39.443) rotate(-6.5)" fill="#191919"></ellipse></g></g>
            </g>
        </g>
    </g>
    
    <!-- ITEM 2 -->
    <g>
        <defs>
            <clipPath id="clip-path-id-viewbox-item-2">
                <rect x="0.0" y="0.0" width="600.0" height="600.0"/>
            </clipPath>
        </defs>
        <g transform="translate(874.0 337.0) rotate(0.0 94.0 94.0) scale(0.31333333333333335 0.31333333333333335)">
            <g clip-path="url(#clip-path-id-viewbox-item-2)" transform="translate(-0.0 -0.0)">
                
<linearGradient id="SVGID_1_-i4" gradientUnits="userSpaceOnUse" x1="8598.7324" y1="2343.593" x2="9666.4639" y2="2343.593" gradientTransform="matrix(0.1861 -0.0177 0.0177 0.1861 -1240.2733 74.711)">
	<stop offset="0" style="stop-color:#DEEAFE"></stop>
	<stop offset="1" style="stop-color:#E9F1FE"></stop>
</linearGradient>
<path fill="url(#SVGID_1_-i4)" d="M474.196,337.481c4.292-2.893,8.859-5.627,11.98-9.757c6.629-8.774,4.966-20.954,4.506-31.941  s2.172-24.253,12.434-28.202c8.568-3.297,20.248,1.03,26.159-5.995c2.195-2.609,2.849-6.144,4.312-9.223  c6.284-13.242,26.273-14.17,38.07-5.468c11.796,8.7,17.377,23.295,22.371,37.077c1.82,5.023,2.697,12.305-2.308,14.173  c-4.758,1.775-10.241-3.798-14.754-1.469c-3.62,1.868-3.353,7.213-1.641,10.91c1.713,3.695,4.397,7.336,3.891,11.376  c-0.963,7.714-11.559,9.15-19.217,7.814c-7.658-1.336-17.58-2.377-21.236,4.483c6.176,14.79,12.035,32.891,2.499,45.774  c-11.029,14.899-33.77,15.627-51.979,19.101c-33.837,6.454-61.697,34.386-78.111,64.672  C405.607,413.403,434.623,364.163,474.196,337.481z"></path>
<linearGradient id="SVGID_2_-i4" gradientUnits="userSpaceOnUse" x1="454.9754" y1="2018.8833" x2="3050.4702" y2="2018.8833" gradientTransform="matrix(0.1869 0 0 0.1869 -80.4969 -93.6353)">
	<stop offset="0" style="stop-color:#6247e9"></stop>
	<stop offset="1" style="stop-color:#4f26cb"></stop>
</linearGradient>
<circle fill="url(#SVGID_2_-i4)" cx="247.087" cy="283.694" r="242.549"></circle>
<path fill="#DDE9FE" d="M171.108,53.301c-7.136-28.966-33.276-50.452-64.445-50.452c-36.662,0-66.381,29.72-66.381,66.381  c0,21.496,10.226,40.595,26.071,52.727C94.35,90.692,130.338,66.74,171.108,53.301z"></path>
<linearGradient id="SVGID_3_-i4" gradientUnits="userSpaceOnUse" x1="454.9756" y1="1006.3766" x2="3050.2458" y2="1006.3766" gradientTransform="matrix(0.1869 0 0 0.1869 -80.4969 -93.6353)">
	<stop offset="0" style="stop-color:#6247e9"></stop>
	<stop offset="1" style="stop-color:#4f26cb"></stop>
</linearGradient>
<path fill="url(#SVGID_3_-i4)" d="M173.046,69.231c0-5.493-0.68-10.825-1.938-15.93C130.336,66.74,94.35,90.692,66.353,121.958  c11.178,8.558,25.147,13.654,40.311,13.654C143.327,135.612,173.046,105.892,173.046,69.231z"></path>
<path fill="#51558A" d="M173.046,69.231c0-5.493-0.68-10.825-1.938-15.93C130.336,66.74,94.35,90.692,66.353,121.958  c11.178,8.558,25.147,13.654,40.311,13.654C143.327,135.612,173.046,105.892,173.046,69.231z"></path>
<g>
	<path fill="#A2C7FE" d="M201.445,563.644h29.903c-1.737,0.548-3.474,1.006-5.304,1.281H206.84   C205.01,564.559,203.273,564.102,201.445,563.644z M194.678,560.993h43.436c0.914-0.366,1.737-0.823,2.56-1.281h-48.466   C192.941,560.17,193.855,560.627,194.678,560.993z M188.367,557.061h56.605c0.64-0.458,1.189-0.823,1.829-1.281h-59.806   C187.453,556.238,187.911,556.694,188.367,557.061z M184.985,553.22h65.017c0.458-0.458,1.006-0.823,1.464-1.281h-67.121   C184.527,552.306,184.71,552.762,184.985,553.22z M183.155,549.288h70.871c0.366-0.458,0.731-0.823,1.189-1.281H182.79   C182.882,548.466,183.065,548.83,183.155,549.288z M182.15,545.356h75.168c0.366-0.458,0.64-0.823,0.914-1.281h-76.266   C182.059,544.533,182.15,544.99,182.15,545.356z M181.692,541.516h78.277c0.275-0.458,0.548-0.823,0.731-1.281h-79.192   C181.601,540.601,181.601,541.058,181.692,541.516z M181.509,537.583h80.656c0.183-0.458,0.458-0.823,0.64-1.281H181.51   C181.509,536.759,181.509,537.125,181.509,537.583z M182.24,533.193c-0.092,0.183-0.092,0.275-0.183,0.458h81.845   c0.183-0.458,0.366-0.823,0.458-1.281h-81.57C182.607,532.645,182.424,532.919,182.24,533.193z M187.545,529.353   c-0.275,0.183-0.548,0.275-0.823,0.366h78.461c0.092-0.458,0.183-0.823,0.366-1.281H189.1   C188.642,528.803,188.094,529.078,187.545,529.353z M192.574,525.877h73.523c0.092-0.458,0.183-0.823,0.183-1.281h-72.425   C193.489,525.054,193.032,525.512,192.574,525.877z M196.14,522.037h70.596c0-0.458,0.092-0.823,0.092-1.281h-69.774   C196.781,521.122,196.506,521.58,196.14,522.037z M198.61,518.104h68.31c0-0.458,0-0.823,0-1.281h-67.67   C199.066,517.19,198.793,517.648,198.61,518.104z M200.255,514.172h66.481c0-0.458-0.092-0.823-0.183-1.281H200.62   C200.53,513.35,200.347,513.808,200.255,514.172z M201.261,510.332h64.836c-0.092-0.458-0.183-0.914-0.275-1.281h-64.378   C201.353,509.418,201.261,509.876,201.261,510.332z M201.628,506.4H265c-0.183-0.458-0.275-0.914-0.458-1.281h-62.915   C201.628,505.485,201.628,505.942,201.628,506.4z M262.621,501.187H201.17c0.092,0.458,0.183,0.823,0.183,1.281h61.909   C263.079,502.101,262.804,501.645,262.621,501.187z M260.061,497.346h-59.898c0.092,0.458,0.275,0.823,0.366,1.281h60.446   C260.701,498.169,260.428,497.713,260.061,497.346z M256.586,493.414h-57.061c0,0.458,0,0.823,0.092,1.281h58.342   C257.41,494.237,256.952,493.781,256.586,493.414z M251.739,489.757c-0.183-0.092-0.275-0.183-0.458-0.275h-50.569   c-0.275,0.366-0.548,0.823-0.731,1.281h53.312C252.745,490.488,252.289,490.03,251.739,489.757z M240.218,485.642h-32.646   c-1.281,0.275-2.47,0.731-3.657,1.281h41.333C243.602,486.373,241.955,485.917,240.218,485.642z"></path>
</g>
<rect x="438.472" y="106.271" transform="matrix(0.7596 0.6503 -0.6503 0.7596 180.1044 -262.1911)" fill="#6247e9" width="12.581" height="12.581"></rect>
<polygon fill="#FFFFFF" points="339.832,291.853 293.44,311.759 320.913,262.148 319.347,287.626 "></polygon>
<g>
	<polygon fill="#FFFFFF" points="120.174,75.77 103.742,87.522 120.174,87.522  "></polygon>
	<polygon fill="#FFFFFF" points="120.174,46.489 62.803,87.522 85.32,87.522 120.174,62.593  "></polygon>
	<polygon fill="#FFFFFF" points="120.174,17.205 32.65,79.808 32.65,87.522 44.383,87.522 120.174,33.312  "></polygon>
	<polygon fill="#FFFFFF" points="120.174,0 103.292,0 32.65,50.527 32.65,66.632 120.174,4.029  "></polygon>
	<polygon fill="#FFFFFF" points="62.354,0 32.65,21.245 32.65,37.35 84.87,0  "></polygon>
	<polygon fill="#FFFFFF" points="32.65,0 32.65,8.069 43.931,0  "></polygon>
</g>
<path fill="#EEEEEE" d="M176.469,290.116h-108.5c0-30.721,25.142-55.624,56.155-55.624s56.155,24.904,56.155,55.624H176.469z"></path>
<path fill="#23286B" d="M187.366,290.116h-14.173c0-27.005-22.013-49.07-49.07-49.07s-49.07,22.065-49.07,49.07H60.881  c0-34.432,28.37-63.243,63.243-63.243C158.996,226.874,187.366,255.684,187.366,290.116z"></path>
<path fill="#FFFFFF" d="M299.619,129.187V19.049c-30.721,0-55.624,25.142-55.624,56.155s24.904,56.155,55.624,56.155V129.187z"></path>
<path fill="#A1C3FC" d="M299.619,138.447v-14.173c-27.005,0-49.07-22.013-49.07-49.07s22.065-49.07,49.07-49.07V11.962  c-34.432,0-63.243,28.37-63.243,63.243C236.377,110.076,265.187,138.447,299.619,138.447z"></path>
<g>
	<polygon fill="#23286B" points="161.675,358.321 75.684,358.321 144.818,269.173 156.453,278.195 105.729,343.6 161.675,343.6  "></polygon>
</g>
<g>
	
		<rect x="299.396" y="104.162" transform="matrix(0.7902 0.6128 -0.6128 0.7902 158.1445 -155.8782)" fill="#A1C3FC" width="14.72" height="97.785"></rect>
</g>
<g>
	<polygon fill="#A1C3FC" points="167.145,475.332 152.938,472.632 152.938,377.747 167.658,377.747 167.658,433.921    199.066,354.312 205.913,349.652 293.705,349.652 293.705,364.373 210.922,364.373  "></polygon>
</g>
<g>
	
		<rect x="20.875" y="173.702" transform="matrix(0.7071 0.7071 -0.7071 0.7071 140.8079 15.6403)" fill="#FFFFFF" width="61.298" height="8.177"></rect>
</g>
<g>
	<rect x="258.176" y="389.248" fill="#FFFFFF" width="51.989" height="16.267"></rect>
</g>
<g>
	<rect x="258.176" y="417.635" fill="#FFFFFF" width="51.989" height="16.267"></rect>
</g>
<g>
	
		<rect x="47.436" y="147.141" transform="matrix(0.7071 0.7071 -0.7071 0.7071 140.8079 15.6403)" fill="#FFFFFF" width="8.177" height="61.298"></rect>
</g>
<g>
	<rect x="156.502" y="217.861" fill="#FFFFFF" width="61.301" height="8.178"></rect>
</g>
<g>
	<rect x="183.063" y="191.301" fill="#FFFFFF" width="8.178" height="61.299"></rect>
</g>
<circle fill="#FFFFFF" cx="374.47" cy="102.384" r="13.406"></circle>
<circle fill="#FFFFFF" cx="374.47" cy="151.273" r="13.406"></circle>
<path id="texture_10_-i4" fill="#151A4F" d="M473.987,343.145c0.451-0.067,0.772-0.393,0.703-0.842l0,0  c-0.067-0.451-0.393-0.772-0.842-0.703l0,0c-0.451,0.067-0.772,0.393-0.703,0.842l0,0  C473.212,342.892,473.537,343.212,473.987,343.145L473.987,343.145z M547.364,322.044c0.324,0.321,0.775,0.254,1.096-0.072  s0.254-0.775-0.072-1.096l0,0c-0.324-0.321-0.775-0.254-1.096,0.072C546.778,321.21,547.04,321.723,547.364,322.044L547.364,322.044  L547.364,322.044z M531.941,310.148c0.324,0.321,0.775,0.254,1.096-0.072c0.321-0.324,0.254-0.775-0.072-1.096l0,0  c-0.324-0.321-0.775-0.254-1.096,0.072l0,0C531.613,309.183,531.617,309.827,531.941,310.148L531.941,310.148z M510.8,342.072  c0.321-0.324,0.447-0.711,0.379-1.163c-0.324-0.321-0.711-0.447-1.163-0.379c-0.321,0.324-0.447,0.712-0.316,0.97  C509.899,342.208,510.287,342.334,510.8,342.072z M501.148,324.981c0.321-0.324,0.447-0.712,0.379-1.163  c-0.324-0.321-0.712-0.447-1.163-0.379c-0.321,0.324-0.447,0.712-0.316,0.97C500.247,325.117,500.828,325.307,501.148,324.981  L501.148,324.981z M556.6,283.876c0.388,0.126,0.901-0.134,1.029-0.522c0.126-0.388-0.134-0.901-0.522-1.029l0,0  c-0.388-0.126-0.901,0.134-1.029,0.522l0,0C555.951,283.235,556.213,283.748,556.6,283.876z M537.738,278.579  c0.388,0.126,0.901-0.134,1.029-0.522c0.126-0.388-0.134-0.901-0.522-1.029c-0.388-0.126-0.901,0.134-1.029,0.522l0,0  C537.089,277.938,537.35,278.452,537.738,278.579L537.738,278.579L537.738,278.579z M493.963,350.951  c0.257-0.131,0.641-0.649,0.316-0.97c-0.131-0.257-0.649-0.641-0.97-0.316c-0.257,0.131-0.641,0.649-0.316,0.97l0,0  C493.06,351.085,493.448,351.211,493.963,350.951L493.963,350.951z M486.704,335.068c0.257-0.131,0.641-0.649,0.316-0.97  c-0.131-0.257-0.455-0.577-0.97-0.316c-0.257,0.131-0.577,0.455-0.316,0.97l0,0C486.06,335.073,486.447,335.199,486.704,335.068  L486.704,335.068L486.704,335.068z M543.664,297.887c0.388,0.126,0.839,0.059,0.965-0.329c0.126-0.388-0.005-0.644-0.329-0.965l0,0  c-0.388-0.126-0.839-0.059-0.965,0.329l0,0C543.209,297.309,543.276,297.759,543.664,297.887L543.664,297.887z M527.44,291.735  c0.388,0.126,0.839,0.059,0.965-0.329c0.126-0.388-0.005-0.644-0.329-0.965l0,0c-0.388-0.126-0.839-0.059-0.965,0.329l0,0  C526.985,291.158,527.052,291.607,527.44,291.735L527.44,291.735z M516.363,324.37c0.324,0.321,0.775,0.254,1.096-0.072  c0.321-0.324,0.254-0.775-0.072-1.096c-0.326-0.321-0.775-0.254-1.096,0.072C515.971,323.598,516.038,324.049,516.363,324.37  L516.363,324.37z M508.926,361.623c0.324,0.321,0.775,0.254,1.096-0.072c0.321-0.324,0.254-0.775-0.072-1.096  s-0.775-0.254-1.096,0.072C508.535,360.853,508.602,361.303,508.926,361.623L508.926,361.623z M494.329,347.853  c0.324,0.321,0.775,0.254,1.096-0.072c0.321-0.324,0.254-0.775-0.072-1.096s-0.775-0.254-1.096,0.072  C493.939,347.081,494.006,347.532,494.329,347.853L494.329,347.853z M479.476,334.211c0.324,0.321,0.775,0.254,1.096-0.072  c0.321-0.324,0.254-0.775-0.072-1.096s-0.775-0.254-1.096,0.072C479.278,333.503,479.345,333.955,479.476,334.211z M539.182,282.696  c0.451-0.067,0.772-0.393,0.703-0.842c-0.067-0.451-0.393-0.772-0.842-0.703c-0.451,0.067-0.772,0.393-0.703,0.842  C538.212,282.381,538.731,282.763,539.182,282.696L539.182,282.696z M452.507,341.928c0.262,0.514,0.649,0.641,1.163,0.379   M522.546,323.169c0.388,0.126,0.901-0.134,1.029-0.522c0.126-0.388-0.134-0.901-0.522-1.029c-0.388-0.126-0.901,0.134-1.029,0.522  l0,0C521.897,322.528,522.157,323.043,522.546,323.169L522.546,323.169L522.546,323.169z M521.085,336.85  c0.388,0.126,0.901-0.134,1.029-0.522c0.126-0.388-0.134-0.901-0.522-1.029c-0.388-0.126-0.839-0.059-1.029,0.522  C520.436,336.208,520.698,336.722,521.085,336.85L521.085,336.85z M502.593,329.1c0.388,0.126,0.901-0.134,1.029-0.522  c0.126-0.388,0.059-0.839-0.522-1.029c-0.388-0.126-0.901,0.134-1.222,0.46C501.945,328.459,502.205,328.972,502.593,329.1  L502.593,329.1z M474.487,350.816c0.324,0.321,0.775,0.254,1.096-0.072l0,0c0.321-0.324,0.254-0.775-0.008-1.289  c-0.324-0.321-0.775-0.254-1.289,0.008C474.096,350.044,474.163,350.496,474.487,350.816L474.487,350.816z M473.468,342.763  c0.388,0.126,0.644-0.005,0.901-0.134c0.126-0.388-0.005-0.644-0.134-0.901c-0.388-0.126-0.644,0.005-0.901,0.134l0,0  C473.208,342.247,473.275,342.699,473.468,342.763L473.468,342.763L473.468,342.763z"></path>
<path fill="#D6D7D8" d="M426.973,483.86l-7.63-17.403c-2.359,0.031-4.662,0.432-6.862,1.325l8.25,18.815  c0.463,1.055-0.018,2.287-1.073,2.748c-1.055,0.463-2.287-0.018-2.748-1.073l-8.096-18.465c-2.015,1.444-3.711,3.289-5.061,5.432  l6.83,15.58c0.463,1.055-0.018,2.285-1.073,2.748c-1.055,0.463-2.287-0.018-2.748-1.073l-5.365-12.236  c-2.229,6.685-1.871,14.955,1.605,22.884c0.082,0.185,0.165,0.368,0.249,0.551c-1.474,0.976-2.905,2.022-4.271,3.162  c-3.832,3.198-8.698,8.523-10.115,15.732l2.048,0.402c1.299-6.608,5.831-11.549,9.405-14.531c1.232-1.029,2.527-1.981,3.865-2.875  c3.546,6.714,8.867,11.777,14.633,14.399l-5.098-11.626c-0.463-1.055,0.018-2.287,1.073-2.748c1.055-0.463,2.287,0.018,2.748,1.073  l6.57,14.983c2.489,0.455,4.985,0.435,7.39-0.119l-7.634-17.41c-0.463-1.055,0.018-2.285,1.073-2.748  c1.055-0.463,2.287,0.018,2.748,1.073l7.738,17.647c2.077-1.078,3.89-2.607,5.491-4.451l-6.986-15.933  c-0.463-1.055,0.018-2.287,1.073-2.748c1.055-0.463,2.285,0.018,2.748,1.073l6.004,13.695c1.513-2.46,2.799-5.201,3.922-8.025  l-3.77-8.599c-0.463-1.055,0.018-2.285,1.073-2.748c1.055-0.463,2.287,0.018,2.748,1.073l2.007,4.578  c2.684-8.077,4.465-15.74,6.958-18.421c-4.547-0.666-11.204-4.565-18.519-7.944l2.599,5.926c0.463,1.055-0.018,2.285-1.073,2.748  c-1.055,0.463-2.287-0.018-2.748-1.073l-4.379-9.987c-2.82-1.076-5.679-1.95-8.505-2.424l6.726,15.339  c0.463,1.055-0.018,2.287-1.073,2.748C428.666,485.396,427.434,484.917,426.973,483.86z"></path>
<g>
	<path fill="#428DFC" d="M385.823,548.135c-0.096,0-0.193-0.008-0.291-0.026c-0.888-0.16-1.48-1.009-1.322-1.899   c7.411-41.307,17.912-82.566,31.208-122.638c0.285-0.855,1.21-1.318,2.067-1.037c0.857,0.285,1.322,1.21,1.037,2.069   c-13.249,39.921-23.709,81.03-31.094,122.183C387.289,547.579,386.6,548.135,385.823,548.135z"></path>
</g>
<ellipse transform="matrix(0.9505 0.3108 -0.3108 0.9505 151.3591 -109.3896)" fill="#23286B" cx="418.934" cy="420.256" rx="21.492" ry="8.036"></ellipse>
<g>
	<path fill="#428DFC" d="M418.597,420.875c-0.173,0-0.35-0.028-0.523-0.087c-0.855-0.289-1.315-1.217-1.026-2.074   c7.622-22.538,16.258-45.059,25.668-66.934c0.357-0.828,1.317-1.209,2.148-0.855c0.829,0.358,1.214,1.32,0.855,2.149   c-9.376,21.795-17.981,44.231-25.575,66.687C419.915,420.445,419.279,420.875,418.597,420.875z"></path>
</g>
<ellipse transform="matrix(0.9762 0.2167 -0.2167 0.9762 85.9128 -88.4936)" fill="#23286B" cx="446.459" cy="347.488" rx="25.895" ry="9.684"></ellipse>
<g>
	<path fill="#428DFC" d="M446.719,348.302c-0.219,0-0.443-0.044-0.656-0.137c-0.826-0.363-1.204-1.328-0.841-2.154   c7.908-18.031,16.517-36.014,25.583-53.443c0.415-0.803,1.4-1.114,2.206-0.697c0.8,0.417,1.112,1.405,0.695,2.207   c-9.032,17.366-17.609,35.281-25.488,53.247C447.949,347.936,447.349,348.302,446.719,348.302z"></path>
</g>
<ellipse transform="matrix(0.8624 0.5062 -0.5062 0.8624 211.6401 -201.6592)" fill="#23286B" cx="476.787" cy="288.498" rx="25.897" ry="9.685"></ellipse>
<g>
	<path fill="#428DFC" d="M476.051,287.738c-0.258,0-0.522-0.062-0.767-0.191c-0.797-0.424-1.101-1.415-0.676-2.213   c7.038-13.231,14.497-26.435,22.171-39.246c0.463-0.775,1.466-1.027,2.242-0.563c0.775,0.465,1.027,1.469,0.563,2.244   c-7.643,12.765-15.076,25.92-22.088,39.102C477.203,287.423,476.638,287.738,476.051,287.738z"></path>
</g>
<ellipse transform="matrix(0.8624 0.5062 -0.5062 0.8624 190.7587 -221.2617)" fill="#23286B" cx="502.407" cy="240.284" rx="34.72" ry="12.984"></ellipse>
<g>
	<path fill="#428DFC" d="M503.458,239.867c-0.293,0-0.587-0.079-0.854-0.242c-0.77-0.474-1.011-1.48-0.536-2.251   c5.224-8.501,10.666-17.021,16.17-25.325c0.5-0.751,1.513-0.96,2.269-0.46c0.752,0.499,0.958,1.515,0.46,2.267   c-5.486,8.275-10.905,16.764-16.113,25.232C504.544,239.59,504.008,239.867,503.458,239.867z"></path>
</g>
<path fill="#A1C3FC" d="M279.23,254.771l-64.994,12.099c-0.406,2.148-0.626,4.361-0.626,6.626c0,1.924,0.159,3.811,0.453,5.651  l69.752-12.985C282.951,262.059,281.377,258.219,279.23,254.771z"></path>
<path fill="#A1C3FC" d="M249.58,238.025l-13.753,2.56c-7.508,3.029-13.738,8.546-17.672,15.535l53.55-9.969  C265.683,241.166,257.984,238.14,249.58,238.025z"></path>
<path fill="#A1C3FC" d="M271.91,300.664l-34.341,6.392c3.615,1.241,7.488,1.923,11.523,1.923  C257.783,308.981,265.74,305.851,271.91,300.664z"></path>
<path fill="#A1C3FC" d="M284.474,276.061l-67.484,12.563c1.927,4.081,4.609,7.733,7.867,10.782l56.188-10.46  C282.954,285.003,284.146,280.65,284.474,276.061z"></path>
<g>
	<path fill="#FFFFFF" d="M310.732,296.932l-0.702-1.477c6.512-3.093,11.741-8.512,16.798-13.751   c5.553-5.754,11.294-11.703,18.818-14.723c5.007-2.01,10.434-2.557,15.681-3.085c2.517-0.254,5.12-0.515,7.629-0.936   c4.39-0.736,14.955-3.353,18.249-11.739c1.56-3.968,1.165-8.512,0.782-12.905c-0.432-4.958-0.877-10.085,1.39-14.615   c4.557-9.098,15.648-9.572,26.377-10.03c10.679-0.456,20.768-0.887,25.104-8.94c2.009-3.728,1.981-8.029,1.953-12.583   c-0.028-4.269-0.054-8.682,1.739-12.627c4.084-8.994,15.486-11.335,21.919-11.93c1.837-0.17,3.698-0.28,5.561-0.391   c3.793-0.226,7.663-0.456,11.347-1.222l-0.234-1.312l12.913-2.3l-4.385,2.398c-5.959,3.26-12.864,3.67-19.543,4.066   c-1.847,0.11-3.69,0.219-5.509,0.388c-6.08,0.563-16.837,2.736-20.581,10.977c-1.642,3.618-1.616,7.849-1.591,11.942   c0.028,4.56,0.057,9.274-2.148,13.37c-4.778,8.872-15.809,9.344-26.476,9.801c-10.727,0.458-20.858,0.891-24.983,9.129   c-2.061,4.115-1.654,8.79-1.223,13.739c0.399,4.581,0.811,9.318-0.89,13.645c-2.535,6.453-9.642,11.101-19.5,12.753   c-2.561,0.43-5.192,0.694-7.735,0.95c-5.134,0.517-10.444,1.052-15.236,2.975c-7.2,2.89-12.817,8.711-18.251,14.341   C322.849,288.184,317.514,293.709,310.732,296.932z"></path>
</g>
<polygon fill="#FFFFFF" points="342.541,397.629 360.33,350.385 377.068,404.567 359.782,385.785 "></polygon>
<g>
	<path fill="#FFFFFF" d="M327.666,600l1.31-4.827c1.778-6.554,6.266-11.818,10.607-16.908c1.201-1.408,2.4-2.815,3.538-4.243   c3.808-4.774,9.695-14.037,6.345-22.448c-1.47-3.692-4.539-6.603-7.508-9.42c-3.307-3.139-6.727-6.384-8.152-10.813   c-3.086-9.591,4.215-17.873,11.278-25.879c7.102-8.052,13.81-15.656,10.728-24.34c-1.539-4.336-5.193-7.284-9.06-10.401   c-3.579-2.887-7.28-5.872-9.222-10.095c-2.897-6.299-1.323-14.644,4.315-22.899c1.466-2.144,3.096-4.222,4.673-6.233   c3.186-4.061,6.48-8.262,8.414-13.051c2.905-7.192,2.599-15.277,2.305-23.094c-0.28-7.424-0.571-15.1,1.806-22.222l1.551,0.517   c-2.282,6.84-1.999,14.364-1.724,21.641c0.303,7.99,0.613,16.254-2.421,23.769c-2.02,5.005-5.388,9.297-8.644,13.448   c-1.56,1.991-3.175,4.048-4.608,6.147c-2.511,3.675-7.943,13.108-4.181,21.293c1.781,3.875,5.331,6.737,8.764,9.506   c3.875,3.124,7.881,6.355,9.575,11.129c3.404,9.588-3.94,17.915-11.042,25.968c-7.071,8.018-13.749,15.589-10.946,24.296   c1.297,4.032,4.418,6.992,7.722,10.128c3.096,2.938,6.297,5.975,7.9,10.002c3.656,9.176-2.557,19.019-6.583,24.07   c-1.15,1.443-2.36,2.862-3.572,4.284c-2.465,2.892-4.979,5.839-6.981,9.027l1.107,0.739L327.666,600z"></path>
</g>

            </g>
        </g>
    </g>
    
    <!-- ITEM 3 -->
    <g>
        <defs>
            <clipPath id="clip-path-id-viewbox-item-3">
                <rect x="0.0" y="0.0" width="62.44459" height="46.26228"/>
            </clipPath>
        </defs>
        <g transform="translate(1053.0 423.0) rotate(0.0 87.5 65.0) scale(2.8024845707210186 2.8100647006589385)">
            <g clip-path="url(#clip-path-id-viewbox-item-3)" transform="translate(-0.0 -0.0)">
                <g id="Слой_2-i5" data-name="Слой 2"><g id="Слой_1-2-i5" data-name="Слой 1"><path d="M31.98187,46.19018c-.46615,0-.93349-.00249-1.39964-.0025s-.93229-.09531-1.39844-.09532-.93229.16993-1.39844.16992-.93229-.1588-1.39844-.15881-.93229-.07207-1.39844-.07208-.9323.15486-1.39845.15485-.93229.04566-1.39844.04565-.93229-.02667-1.39844-.02668-.93229.028-1.39844.028-.9323-.0904-1.39844-.0904-.9323.09295-1.39844.09295-.9323-.17033-1.39845-.17032-.93229.05191-1.39844.05193-.9323-.08253-1.39845-.0825-.93229.08974-1.39844.08977-.9323-.04195-1.39844-.0419S8.6733,46.13,8.20716,46.13a9.2361,9.2361,0,0,1-1.3009-.04623,6.00148,6.00148,0,0,1-1.2767-.28809,4.8535,4.8535,0,0,1-1.11555-.679,5.87306,5.87306,0,0,1-.98075-.8594,9.52343,9.52343,0,0,1-.833-1.01232c-.22383-.34163-.30769-.79921-.53276-1.20185a14.08123,14.08123,0,0,1-.61107-1.299c-.19407-.44765-.43569-.86551-.581-1.31769-.14831-.46154-.31315-.91629-.41786-1.38251C.452,37.57354.41851,37.09016.34979,36.615.281,36.13964.28331,35.65824.244,35.17816c-.03908-.47754-.06141-.95443-.07872-1.43655-.01717-.47837-.09043-.95646-.09341-1.43929-.00295-.47854-.02619-.95938-.02226-1.44226.00386-.47251.0411-.94479.04366-1.41731S.073,28.49761.07444,28.02508s-.001-.945-.00045-1.41754.00113-.945.001-1.41753-.04965-.945-.0502-1.41749.15445-.94527.15363-1.4178S.0952,21.40983.09432,20.93731s-.03951-.945-.04026-1.41748.09018-.94513.08977-1.41765-.08364-.945-.0835-1.41751.11043-.94486.11132-1.41738-.14587-.94542-.144-1.41792.1093-.94449.1123-1.417S.141,11.48748.14536,11.015s-.15112-.94683-.14519-1.4193c.00612-.4883.14462-.9762.16907-1.46367A14.51844,14.51844,0,0,1,.357,6.682,8.77213,8.77213,0,0,1,.61733,5.2436a6.70205,6.70205,0,0,1,.67443-1.292A6.25894,6.25894,0,0,1,2.1561,2.79a10.25513,10.25513,0,0,1,.89447-1.024A8.18478,8.18478,0,0,1,4.249,1.12656,7.66177,7.66177,0,0,1,5.45632.5273,7.89869,7.89869,0,0,1,6.77519.242,8.86037,8.86037,0,0,1,8.118.16987c.46857-.00067.937-.108,1.40557-.10858s.93735.18864,1.40591.18815S11.86647.07332,12.335.0729,13.27217.05433,13.74074.054s.93719.083,1.40576.08269.93715.04021,1.40572.04.93715.06177,1.40572.06161.93713.00831,1.4057.0082.9371-.15777,1.40567-.15784.93714.04491,1.40571.04487.93713-.04989,1.4057-.0499S24.51786.0432,24.98643.04321s.93714.03459,1.40571.03462.93714-.00676,1.4057-.00673.93713.09566,1.4057.09569.93714.025,1.40571.025.93713.01384,1.4057.01386.93714-.14529,1.40571-.14528.93714.0581,1.40571.05808.93715.1195,1.40571.11945.93714-.04628,1.40571-.04636.93713-.04819,1.4057-.04831.93715.047,1.40572.04677.93715.01147,1.40572.01125S42.792.00029,43.26052,0s.93714.0217,1.40571.02134.93718.06448,1.40574.06405.93724.09955,1.40581.099.937-.145,1.40553-.14557S49.82053.103,50.2891.10235s.93716.01692,1.40573.01613.93714.0019,1.40571.001.93725.05409,1.40582.05308a7.86694,7.86694,0,0,1,1.424.02031,6.89155,6.89155,0,0,1,1.341.477,7.08133,7.08133,0,0,1,1.3263.54917,7.43391,7.43391,0,0,1,.9785,1.051A7.80183,7.80183,0,0,1,60.44682,3.375a8.87452,8.87452,0,0,1,.84207,1.15457A10.00009,10.00009,0,0,1,61.829,5.85892a10.983,10.983,0,0,1,.26837,1.40824,11.65007,11.65007,0,0,1,.02994,1.426c.01574.45637.033.91245.04672,1.36889s-.0119.91365-.00012,1.37015.23588.90795.24585,1.36449-.217.91778-.20874,1.37435.05657.91211.06325,1.36871.0015.913.00671,1.3696-.02321.91318-.01938,1.36979.15291.912.15549,1.36866.02609.91321.02752,1.36984-.04124.91337-.04086,1.37-.099.91313-.09949,1.36976.1204.9134.119,1.37-.024.91317-.02609,1.36979.03078.91344.02812,1.37006-.16216.9122-.16531,1.36882.02731.91342.02379,1.37-.04791.91287-.0517,1.36949.11179.91425.10785,1.37087-.10613.91246-.11012,1.36911.174.91486.17,1.37149.00967.91336.00592,1.37-.09456.91248-.098,1.36906-.07567.91267-.07874,1.36922a6.27967,6.27967,0,0,1-.08412,1.3754,7.47007,7.47007,0,0,1-1.24062,2.454,5.9218,5.9218,0,0,1-1.0033.96657,6.45828,6.45828,0,0,1-1.29.51491,6.60039,6.60039,0,0,1-1.29059.46517,7.36924,7.36924,0,0,1-1.37289.22686c-.46993,0-.93988-.088-1.40982-.088s-.93987.04215-1.40981.04217-.93987.00777-1.40981.00779-.93987.05338-1.40981.0534-.93987-.02014-1.40981-.02014-.93987.02748-1.40981.02749-.93988-.18622-1.40981-.18622-.93988.10846-1.40981.10846-.93988-.02518-1.40981-.02518-.93988-.045-1.40981-.045-.93988.155-1.40982.155-.93987-.1121-1.4098-.11211-.93988.01322-1.40982.01321-.93987.02074-1.40981.02073-.93987.05521-1.40981.05521-.93987-.10061-1.40981-.10062-.936.12669-1.4059.12669C31.98461,46.246,31.9819,46.17524,31.98187,46.19018Z" fill="#95cbf1"></path><path d="M8.90992,21.3754c-.02178-.43-.01406-.85836-.01464-1.28435-.00059-.4305-.06864-.86126-.03956-1.28639.02933-.42864.0847-.85639.15243-1.27824a11.65582,11.65582,0,0,1,.334-1.24084A10.18,10.18,0,0,1,9.69689,15.05a9.86176,9.86176,0,0,1,.59394-1.14152A6.85168,6.85168,0,0,1,11.13,12.74687a5.611,5.611,0,0,1,1.07574-.94935,5.27089,5.27089,0,0,1,1.30812-.58688,5.91082,5.91082,0,0,1,1.41039-.2048,7.31654,7.31654,0,0,1,1.42732.01107,9.7434,9.7434,0,0,1,1.4105.26152,13.05892,13.05892,0,0,1,1.355.4785,5.35649,5.35649,0,0,1,1.2085.69162,4.93664,4.93664,0,0,1,.96185,1.001,4.9927,4.9927,0,0,1,.64709,1.22164,5.47006,5.47006,0,0,1,.32079,1.34344,6.29328,6.29328,0,0,1,.055,1.38907,7.51742,7.51742,0,0,1-.29191,1.36409,4.29882,4.29882,0,0,1-.52622,1.11446,2.044,2.044,0,0,1-.93164.77356,1.93627,1.93627,0,0,1-1.19287.03036,2.41591,2.41591,0,0,1-1.08179-.50612,1.82191,1.82191,0,0,1-.65107-1.012,3.05685,3.05685,0,0,1,.0781-1.22255,2.6808,2.6808,0,0,0,.02435-1.52985,1.47531,1.47531,0,0,0-1.24757-.8222,4.30125,4.30125,0,0,0-1.2133-.01,1.65549,1.65549,0,0,0-1.0568.49548,2.14886,2.14886,0,0,0-.56183,1.04788c-.1084.459-.20337.9171-.279,1.376-.07655.46455-.11949.93005-.16155,1.394-.04241.46784-.094.93324-.10041,1.4-.00644.46852-.02375.93877.007,1.40577.03069.46621.10432.93084.173,1.39509.06818.46091.17935.91606.28587,1.3746.10513.45254.18653.91626.32988,1.36607a4.57176,4.57176,0,0,0,.59888,1.20838,3.8402,3.8402,0,0,0,.9713.92027,3.72312,3.72312,0,0,0,1.20255.56084,4.17436,4.17436,0,0,0,1.3243.18046,5.06961,5.06961,0,0,0,1.31712-.26508c.3658-.12124.728-.25347,1.08774-.39146a2.60678,2.60678,0,0,1,1.70365-.14505,2.30558,2.30558,0,0,1,1.36163,2.30412,1.86285,1.86285,0,0,1-.47307,1.0203,4.13686,4.13686,0,0,1-.89937.71677,7.78657,7.78657,0,0,1-1.21185.666,7.68631,7.68631,0,0,1-1.33.38095,7.89245,7.89245,0,0,1-1.37042.18661,8.26575,8.26575,0,0,1-1.38823-.03417,8.59483,8.59483,0,0,1-1.33947-.36222,8.829,8.829,0,0,1-1.3179-.43947,8.999,8.999,0,0,1-1.14636-.78424,8.85343,8.85343,0,0,1-1.10194-.83783,8.84251,8.84251,0,0,1-.89425-1.05769,9.244,9.244,0,0,1-1.29779-2.43334c-.15244-.44242-.32342-.87556-.42984-1.32318-.10763-.45276-.18672-.91142-.253-1.369-.06645-.45866-.09334-.92251-.12408-1.38551-.03063-.46123-.06866-.92441-.06962-1.38945C8.83157,22.30375,8.88729,21.84032,8.90992,21.3754Z" fill="#fdfefe"></path><path d="M33.386,29.14625a2.66182,2.66182,0,0,1-1.16633-.19075,1.80789,1.80789,0,0,1-.86184-.79029,2.2629,2.2629,0,0,1-.24836-1.14712,1.74754,1.74754,0,0,0-.52779-1.54577,2.49756,2.49756,0,0,0-1.64-.24327,6.7822,6.7822,0,0,1-1.91584-.044,2.53336,2.53336,0,0,1-1.43744-.72883,2.24608,2.24608,0,0,1-.47749-1.53632A1.6488,1.6488,0,0,1,25.7071,21.571a3.21811,3.21811,0,0,1,1.38767-.60978c.06178-.01348.136.04034.19911.03075a4.65876,4.65876,0,0,1,1.20162.00726,7.246,7.246,0,0,0,1.20662.0562,1.239,1.239,0,0,0,1.054-.49354A2.3172,2.3172,0,0,0,31.072,19.4013a11.12009,11.12009,0,0,0-.06135-1.21,11.38743,11.38743,0,0,1-.01838-1.20733,4.40276,4.40276,0,0,1,.23046-1.26991,2.33832,2.33832,0,0,1,.716-1.0641,2.17316,2.17316,0,0,1,1.2041-.43121,1.95268,1.95268,0,0,1,1.2471.25844,2.18343,2.18343,0,0,1,.75179,1.02514,5.39455,5.39455,0,0,1,.36377,1.23246,5.19564,5.19564,0,0,1,.0744,1.3461,6.31276,6.31276,0,0,0-.01547,1.60713,1.42732,1.42732,0,0,0,.90777,1.21458,3.31878,3.31878,0,0,0,1.58778.11773,1.83387,1.83387,0,0,1,1.5328.54627,2.16208,2.16208,0,0,1,.58438,1.53461,2.19362,2.19362,0,0,1-.33494,1.10676,1.91406,1.91406,0,0,1-.82347.80874,2.54884,2.54884,0,0,1-1.1533.18171,4.46382,4.46382,0,0,0-1.28676.08464,1.49676,1.49676,0,0,0-.991.781,3.015,3.015,0,0,0-.23962,1.25674,1.97007,1.97007,0,0,1-.55679,1.38075A1.88886,1.88886,0,0,1,33.386,29.14625Z" fill="#fdfefe"></path><path d="M51.08626,30.30662a1.993,1.993,0,0,1-1.11844-.439,2.2,2.2,0,0,1-.57624-1.048,4.05292,4.05292,0,0,1-.17525-1.18526,2.92462,2.92462,0,0,0-.27084-1.52934,1.58726,1.58726,0,0,0-1.38911-.59459,2.10886,2.10886,0,0,1-1.40965-.591,1.878,1.878,0,0,1-.51349-1.43351,2.224,2.224,0,0,1,.57113-1.51917,2.1435,2.1435,0,0,1,1.51842-.54184,1.56367,1.56367,0,0,0,1.20774-.4222,1.64689,1.64689,0,0,0,.25482-1.25118c-.03177-.38248-.04362-.77012-.04972-1.15663a7.50155,7.50155,0,0,1,.0498-1.15372,3.2571,3.2571,0,0,1,.529-1.54745,1.94376,1.94376,0,0,1,1.44413-.73153,1.99041,1.99041,0,0,1,1.51939.49434,3.08747,3.08747,0,0,1,.85852,1.3669,4.47324,4.47324,0,0,1,.20405,1.42267c.00749.4831-.00745.96685-.02492,1.44635a1.59343,1.59343,0,0,0,.301,1.15383,1.21962,1.21962,0,0,0,1.12768.28621,3.37877,3.37877,0,0,1,.96468.04054,3.89275,3.89275,0,0,1,1.53053.55535,1.65734,1.65734,0,0,1,.71764,1.40149,2.50256,2.50256,0,0,1-.2057,1.15375,1.94515,1.94515,0,0,1-.79774.85948,2.01582,2.01582,0,0,1-1.149.2154,3.50868,3.50868,0,0,0-1.455.12465,1.57633,1.57633,0,0,0-.98707,1.01106,4.418,4.418,0,0,0-.26316,1.44207,2.63046,2.63046,0,0,1-.261,1.20128,1.70626,1.70626,0,0,1-.92617.791A3.24247,3.24247,0,0,1,51.08626,30.30662Z" fill="#fdfefe"></path></g></g>
            </g>
        </g>
    </g>
    
    <!-- ITEM 4 -->
    <g>
        <defs>
            <clipPath id="clip-path-id-viewbox-item-4">
                <rect x="0.0" y="0.0" width="600.0" height="600.0"/>
            </clipPath>
        </defs>
        <g transform="translate(1063.0 238.0) rotate(0.0 82.0 82.0) scale(0.2733333333333333 0.2733333333333333)">
            <g clip-path="url(#clip-path-id-viewbox-item-4)" transform="translate(-0.0 -0.0)">
                
<path fill="#84eca6" d="M432.134,300.847c-81.836,0-148.177-66.341-148.177-148.177c0-61.525,37.5-114.282,90.887-136.685  C348.05,7.792,319.608,3.369,290.131,3.369C130.358,3.369,0.835,132.891,0.835,292.664s129.522,289.299,289.296,289.299  s289.296-129.522,289.296-289.296c0-28.046-4.006-55.153-11.451-80.796C545.125,264.233,492.918,300.847,432.134,300.847z"></path>
<path opacity="0.44" fill="#B0CDFC" enable-background="new    " d="M567.977,211.87c7.915-18.135,12.332-38.148,12.332-59.2  c0-81.836-66.341-148.177-148.177-148.177c-20.311,0-39.664,4.095-57.288,11.492C467.791,44.409,540.835,118.372,567.977,211.87z"></path>
<path fill="#B0CDFC" d="M283.958,152.672c0,81.836,66.341,148.177,148.177,148.177c60.783,0,112.991-36.614,135.843-88.977  c-27.143-93.5-100.187-167.463-193.133-195.886C321.458,38.388,283.958,91.147,283.958,152.672z"></path>
<path opacity="0.44" fill="#BBD4FD" enable-background="new    " d="M283.958,152.672c0,81.836,66.341,148.177,148.177,148.177  c60.783,0,112.991-36.614,135.843-88.977c-27.143-93.5-100.187-167.463-193.133-195.886  C321.458,38.388,283.958,91.147,283.958,152.672z"></path>
<rect x="207.221" y="170.133" fill="#1D72D8" width="135.625" height="135.625"></rect>
<g opacity="0.47">
	<path fill="#428DFC" d="M461.08,299.746h38.098c-2.213,0.699-4.426,1.282-6.757,1.632h-24.466   C465.623,300.911,463.41,300.327,461.08,299.746z M452.458,296.365h55.341c1.165-0.466,2.213-1.048,3.261-1.632h-61.748   C450.245,295.317,451.41,295.901,452.458,296.365z M444.419,291.357h72.117c0.816-0.582,1.515-1.048,2.33-1.632h-76.194   C443.254,290.307,443.837,290.891,444.419,291.357z M440.109,286.463h82.836c0.582-0.582,1.282-1.048,1.864-1.632h-85.515   C439.526,285.298,439.758,285.881,440.109,286.463z M437.779,281.453h90.293c0.466-0.582,0.933-1.048,1.515-1.632h-92.274   C437.43,280.405,437.662,280.871,437.779,281.453z M436.497,276.443h95.769c0.466-0.582,0.816-1.048,1.165-1.632h-97.167   C436.38,275.395,436.497,275.978,436.497,276.443z M435.914,271.55h99.729c0.349-0.582,0.699-1.048,0.933-1.632H435.681   C435.798,270.385,435.798,270.968,435.914,271.55z M435.681,266.54H538.44c0.232-0.582,0.582-1.048,0.816-1.632H435.681   C435.681,265.492,435.681,265.959,435.681,266.54z M436.614,260.949c-0.117,0.232-0.117,0.349-0.232,0.582h104.273   c0.232-0.582,0.466-1.048,0.582-1.632H437.313C437.079,260.25,436.846,260.599,436.614,260.949z M443.371,256.054   c-0.349,0.232-0.699,0.349-1.048,0.466h99.963c0.117-0.582,0.232-1.048,0.466-1.632h-97.399   C444.768,255.355,444.069,255.705,443.371,256.054z M449.778,251.628h93.671c0.117-0.582,0.232-1.048,0.232-1.632h-92.274   C450.943,250.58,450.362,251.161,449.778,251.628z M454.323,246.735h89.944c0-0.582,0.117-1.048,0.117-1.632H455.49   C455.137,245.57,454.788,246.151,454.323,246.735z M457.468,241.725h87.03c0-0.582,0-1.048,0-1.632h-86.214   C458.051,240.56,457.702,241.142,457.468,241.725z M459.565,236.715h84.7c0-0.582-0.117-1.048-0.232-1.632h-84.001   C459.915,235.667,459.683,236.249,459.565,236.715z M460.846,231.822h82.603c-0.117-0.582-0.232-1.165-0.349-1.632h-82.02   C460.963,230.657,460.846,231.239,460.846,231.822z M461.312,226.812h80.74c-0.232-0.582-0.349-1.165-0.582-1.632h-80.156   C461.312,225.647,461.312,226.229,461.312,226.812z M539.023,220.171h-78.292c0.117,0.582,0.232,1.048,0.232,1.632h78.876   C539.605,221.336,539.255,220.753,539.023,220.171z M535.76,215.278h-76.311c0.117,0.582,0.349,1.048,0.466,1.632h77.01   C536.576,216.326,536.226,215.745,535.76,215.278z M531.333,210.268h-72.701c0,0.582,0,1.048,0.117,1.632h74.331   C532.382,211.316,531.8,210.735,531.333,210.268z M525.158,205.608c-0.232-0.117-0.349-0.232-0.582-0.349h-64.428   c-0.349,0.466-0.699,1.048-0.933,1.632h67.923C526.441,206.539,525.857,205.957,525.158,205.608z M510.478,200.366h-41.593   c-1.632,0.349-3.146,0.933-4.66,1.632h52.661C514.789,201.297,512.691,200.715,510.478,200.366z"></path>
</g>
<path fill="#73d380" d="M548.961,439.325l-21.57-28.085c-4.254,1.107-8.243,2.861-11.825,5.457l23.32,30.366  c1.309,1.702,0.988,4.144-0.715,5.451c-1.702,1.309-4.144,0.988-5.451-0.715l-22.886-29.8c-3.001,3.511-5.248,7.606-6.734,12.086  l19.309,25.143c1.309,1.702,0.988,4.144-0.715,5.451c-1.702,1.309-4.144,0.988-5.451-0.715l-15.166-19.747  c-1.053,13.091,3.283,27.894,13.111,40.691c0.229,0.3,0.463,0.592,0.697,0.887c-2.231,2.422-4.355,4.953-6.319,7.626  c-5.508,7.496-11.937,19.304-11.286,32.977l3.884-0.184c-0.598-12.534,5.4-23.499,10.536-30.49c1.772-2.41,3.69-4.71,5.71-6.925  c9.411,10.566,21.297,17.355,32.898,19.525L535.9,489.56c-1.309-1.702-0.988-4.144,0.715-5.451c1.702-1.309,4.144-0.988,5.451,0.715  l18.569,24.18c4.707-0.287,9.213-1.436,13.318-3.511l-21.577-28.096c-1.309-1.702-0.988-4.144,0.715-5.451  c1.702-1.309,4.144-0.988,5.451,0.715l21.873,28.481c3.277-2.875,5.875-6.453,7.948-10.502l-19.749-25.714  c-1.309-1.702-0.988-4.144,0.715-5.451c1.702-1.309,4.144-0.988,5.451,0.716l16.975,22.102c1.64-5.127,2.742-10.66,3.518-16.271  l-10.656-13.877c-1.309-1.702-0.988-4.144,0.715-5.451c1.702-1.309,4.144-0.988,5.451,0.715l5.675,7.39  c1.254-15.812,1.059-30.472,4.375-36.435c-8.525,0.823-22.309-3.263-37.054-6.116l7.345,9.566c1.309,1.702,0.988,4.144-0.715,5.451  c-1.702,1.309-4.144,0.988-5.451-0.715l-12.378-16.117c-5.581-0.69-11.146-0.995-16.47-0.592l19.011,24.755  c1.309,1.702,0.988,4.144-0.715,5.451C552.71,441.348,550.27,441.029,548.961,439.325z"></path>
<rect x="309.675" y="75.767" transform="matrix(-0.975 0.2224 -0.2224 -0.975 641.1821 90.9273)" fill="#79AEFD" width="11.593" height="11.594"></rect>
<rect x="247.564" y="240.316" transform="matrix(-0.981 -0.1942 0.1942 -0.981 454.1836 536.835)" fill="#A1C3FC" width="11.68" height="11.68"></rect>
<polygon fill="#9cfba7" points="163.563,39.105 211.505,50.446 161.142,73.388 177.172,54.32 "></polygon>
<g>
	<path fill="#9cfba7" d="M146.221,63.069c-0.36,0-0.697-0.22-0.83-0.576c-0.172-0.459,0.06-0.97,0.52-1.142   c16.395-6.138,24.757-8.702,41.712-9.341c0.528-0.048,0.901,0.364,0.92,0.851c0.02,0.489-0.364,0.901-0.851,0.92   c-16.697,0.63-24.955,3.164-41.159,9.231C146.428,63.051,146.324,63.069,146.221,63.069z"></path>
</g>
<polygon fill="#9cfba7" points="74.944,443.828 83.21,382.805 117.891,442.663 92.213,425.044 "></polygon>
<g>
	<path fill="#9cfba7" d="M106.686,463.479c-0.328,0-0.644-0.183-0.796-0.497c-9.624-19.625-13.827-29.705-16.682-50.687   c-0.066-0.484,0.275-0.931,0.759-0.998c0.488-0.08,0.933,0.273,0.998,0.759c2.82,20.726,6.984,30.703,16.516,50.147   c0.216,0.438,0.035,0.97-0.406,1.186C106.95,463.45,106.817,463.479,106.686,463.479z"></path>
</g>
<polygon fill="#9cfba7" points="354.865,102.491 348.733,126.347 337.75,100.95 347.128,109.147 "></polygon>
<g>
	<path fill="#9cfba7" d="M346.779,115.529c-0.482,0-0.878-0.387-0.887-0.871c-0.011-0.562-0.012-1.302-0.016-2.19   c-0.137-36.819-7.973-57.23-23.292-60.67c-0.479-0.108-0.779-0.582-0.672-1.059c0.11-0.479,0.58-0.775,1.061-0.67   c16.234,3.644,24.537,24.636,24.677,62.394c0.004,0.88,0.005,1.608,0.016,2.165c0.009,0.489-0.381,0.894-0.871,0.903   C346.788,115.529,346.782,115.529,346.779,115.529z"></path>
</g>
<g>
	<rect x="430.212" y="216.364" fill="#1D72D8" width="16.807" height="16.807"></rect>
</g>
<path fill="#9cfba7" d="M467.461,165.77h-57.207c0-16.533,13.403-29.935,29.935-29.935c16.533,0,29.935,13.403,29.935,29.935  H467.461z"></path>
<path fill="#D62929" d="M476.333,165.77h-12.414c0-13.084-10.646-23.728-23.73-23.728s-23.728,10.644-23.728,23.728h-12.414  c0-19.93,16.214-36.142,36.142-36.142C460.121,129.628,476.333,145.841,476.333,165.77z"></path>
<g>
	<polygon fill="#D62929" points="443.772,207.259 431.358,207.259 431.358,176.895 470.126,176.895 470.126,189.308    443.772,189.308  "></polygon>
</g>
<g>
	<polygon fill="#1D72D8" points="5.691,78.788 5.691,89.615 20.827,78.788  "></polygon>
	<polygon fill="#1D72D8" points="37.798,78.788 5.691,101.754 5.691,116.59 58.54,78.788  "></polygon>
	<polygon fill="#1D72D8" points="86.319,78.788 75.512,78.788 5.691,128.729 5.691,143.565 86.319,85.894  "></polygon>
	<polygon fill="#1D72D8" points="86.319,98.033 5.691,155.704 5.691,159.416 21.242,159.416 86.319,112.869  "></polygon>
	<polygon fill="#1D72D8" points="86.319,125.008 38.213,159.416 58.955,159.416 86.319,139.845  "></polygon>
	<polygon fill="#1D72D8" points="86.319,151.984 75.925,159.416 86.319,159.416  "></polygon>
</g>
<circle fill="#9cfba7" cx="527.072" cy="263.932" r="11.907"></circle>
<circle fill="#9cfba7" cx="527.072" cy="307.357" r="11.907"></circle>
<g>
	<path fill="#A1C3FC" d="M377.405,182.428l-91.657,17.064c-0.573,3.029-0.885,6.15-0.885,9.346c0,2.713,0.223,5.373,0.638,7.97   l98.367-18.312C382.653,192.706,380.433,187.29,377.405,182.428z"></path>
	<path fill="#A1C3FC" d="M335.592,158.813l-19.394,3.611c-10.585,4.27-19.373,12.052-24.92,21.909l75.517-14.058   C358.301,163.241,347.444,158.973,335.592,158.813z"></path>
	<path fill="#A1C3FC" d="M367.082,247.148l-48.428,9.016c5.097,1.75,10.559,2.713,16.25,2.713   C347.16,258.876,358.382,254.463,367.082,247.148z"></path>
	<path fill="#A1C3FC" d="M384.801,212.45l-95.168,17.716c2.717,5.756,6.501,10.906,11.094,15.203l79.238-14.751   C382.656,225.06,384.338,218.924,384.801,212.45z"></path>
</g>
<polygon fill="#9cfba7" points="443.167,460.077 401.96,477.758 426.362,433.693 424.97,456.323 "></polygon>
<g>
	<path fill="#9cfba7" d="M417.389,464.734l-0.763-1.603c5.76-2.735,10.394-7.537,14.877-12.18   c4.944-5.123,10.055-10.421,16.769-13.116c4.471-1.795,9.303-2.281,13.98-2.752c2.231-0.223,4.538-0.456,6.758-0.828   c3.873-0.649,13.191-2.956,16.087-10.327c1.371-3.492,1.037-7.328,0.685-11.391c-0.385-4.426-0.782-9.004,1.252-13.066   c4.091-8.165,13.99-8.589,23.565-8.998c9.438-0.404,18.355-0.784,22.162-7.858c1.765-3.275,1.74-7.076,1.717-11.102   c-0.023-3.808-0.046-7.746,1.559-11.282c3.659-8.062,13.852-10.16,19.602-10.69c1.632-0.151,3.286-0.25,4.941-0.348   c5.756-0.34,11.708-0.697,16.682-3.417l0.851,1.555c-5.326,2.914-11.479,3.279-17.429,3.632c-1.637,0.099-3.272,0.195-4.884,0.344   c-5.365,0.497-14.859,2.41-18.149,9.658c-1.444,3.181-1.422,6.755-1.399,10.538c0.027,4.07,0.051,8.278-1.928,11.953   c-4.286,7.961-14.13,8.381-23.65,8.787c-9.479,0.406-18.433,0.787-22.054,8.019c-1.811,3.616-1.451,7.746-1.071,12.119   c0.356,4.089,0.724,8.314-0.798,12.192c-2.274,5.785-8.631,9.949-17.445,11.428c-2.279,0.381-4.616,0.617-6.876,0.844   c-4.551,0.459-9.259,0.931-13.494,2.632c-6.363,2.554-11.119,7.484-16.154,12.701C428.187,456.938,423.438,461.86,417.389,464.734z   "></path>
</g>
<rect x="554.816" y="27.818" transform="matrix(0.7596 0.6503 -0.6503 0.7596 156.6064 -356.5076)" fill="#9cfba7" width="11.591" height="11.591"></rect>
<g>
	<polygon fill="#78A9EF" points="59.599,315.062 52.505,315.062 52.505,255.565 227.294,255.565 227.294,262.658 59.599,262.658     "></polygon>
</g>
<line fill="none" stroke="#78A9EF" stroke-width="4" stroke-miterlimit="10" x1="88.266" y1="259.111" x2="88.266" y2="260.807"></line>
<g>
	
		<rect x="69.535" y="257.065" transform="matrix(0.8194 0.5733 -0.5733 0.8194 172.1153 9.2947)" fill="#78A9EF" width="3.547" height="41.395"></rect>
</g>
<g>
	
		<rect x="88.184" y="257.066" transform="matrix(0.8194 0.5733 -0.5733 0.8194 175.4839 -1.396)" fill="#78A9EF" width="3.547" height="41.395"></rect>
</g>
<g>
	
		<rect x="99.204" y="254.959" transform="matrix(0.8194 0.5733 -0.5733 0.8194 182.9412 -5.991)" fill="#78A9EF" width="3.547" height="64.68"></rect>
</g>
<g>
	
		<rect x="117.007" y="254.726" transform="matrix(0.8194 0.5733 -0.5733 0.8194 186.7649 -16.0059)" fill="#78A9EF" width="3.547" height="67.266"></rect>
</g>
<g>
	
		<rect x="144.133" y="257.065" transform="matrix(0.8194 0.5733 -0.5733 0.8194 185.5901 -33.4705)" fill="#78A9EF" width="3.547" height="41.395"></rect>
</g>
<g>
	
		<rect x="162.783" y="257.065" transform="matrix(0.8194 0.5733 -0.5733 0.8194 188.9592 -44.1622)" fill="#78A9EF" width="3.547" height="41.395"></rect>
</g>
<g>
	
		<rect x="181.433" y="257.065" transform="matrix(0.8194 0.5733 -0.5733 0.8194 192.3281 -54.8534)" fill="#78A9EF" width="3.547" height="41.395"></rect>
</g>
<g>
	
		<rect x="250.669" y="91.773" transform="matrix(0.8067 0.5909 -0.5909 0.8067 108.3836 -129.6824)" fill="#78A9EF" width="3.547" height="18.151"></rect>
</g>
<g>
	
		<rect x="257.165" y="97.389" transform="matrix(0.8194 0.5733 -0.5733 0.8194 113.9043 -127.2903)" fill="#78A9EF" width="3.547" height="39.423"></rect>
</g>
<g>
	
		<rect x="265.17" y="115.485" transform="matrix(0.8194 0.5733 -0.5733 0.8194 124.0669 -129.1329)" fill="#78A9EF" width="3.547" height="33.639"></rect>
</g>
<g>
	
		<rect x="201.557" y="257.534" transform="matrix(0.8193 0.5734 -0.5734 0.8193 194.8535 -66.9045)" fill="#78A9EF" width="4" height="36.218"></rect>
</g>
<g>
	
		<rect x="238.916" y="412.272" transform="matrix(0.8192 0.5735 -0.5735 0.8192 283.1479 -70.0812)" fill="#78A9EF" width="27.621" height="3.547"></rect>
</g>
<g>
	
		<rect x="238.914" y="424.717" transform="matrix(0.8192 0.5735 -0.5735 0.8192 290.2853 -67.8304)" fill="#78A9EF" width="27.621" height="3.547"></rect>
</g>
<g>
	
		<rect x="224.777" y="432.071" transform="matrix(0.8192 0.5735 -0.5735 0.8192 293.351 -62.8478)" fill="#78A9EF" width="43.156" height="3.547"></rect>
</g>
<g>
	
		<rect x="223.214" y="443.949" transform="matrix(0.8192 0.5735 -0.5735 0.8192 300.0368 -60.2988)" fill="#78A9EF" width="44.883" height="3.547"></rect>
</g>
<g>
	
		<rect x="238.913" y="462.049" transform="matrix(0.8192 0.5735 -0.5735 0.8192 311.695 -61.0802)" fill="#78A9EF" width="27.621" height="3.547"></rect>
</g>
<g>
	
		<rect x="238.913" y="474.494" transform="matrix(0.8192 0.5735 -0.5735 0.8192 318.832 -58.83)" fill="#78A9EF" width="27.621" height="3.547"></rect>
</g>
<g>
	
		<rect x="238.913" y="486.939" transform="matrix(0.8192 0.5735 -0.5735 0.8192 325.9692 -56.58)" fill="#78A9EF" width="27.621" height="3.547"></rect>
</g>
<g>
	
		<rect x="242.058" y="500.466" transform="matrix(0.8193 0.5734 -0.5734 0.8193 333.9059 -54.9584)" fill="#78A9EF" width="24.165" height="3.547"></rect>
</g>
<g>
	<path fill="#78A9EF" d="M93.98,240.29l-2.304-2.697c19.362-16.541,40.198-31.217,62.234-43.855l-5.928-10.475l2.735-0.25   c12.556-1.149,25.088-3.408,37.252-6.718l1.202,3.325c-10.367,4.728-20.518,9.885-30.426,15.453l4.38,7.739   c3.203-6.022,7.753-11.258,13.302-15.273l2.078,2.873c-5.971,4.32-10.685,10.172-13.632,16.925l-1.421,3.254l-7.794-13.769   C133.818,209.353,113.168,223.899,93.98,240.29z M153.763,186.281l3.231,5.709c5.308-2.983,10.683-5.849,16.126-8.596   C166.711,184.641,160.243,185.607,153.763,186.281z"></path>
</g>
<g>
	<path fill="#78A9EF" d="M152.396,432.542c-2.54-10.383-6.363-21.394-15.468-24.32l-12.095-3.885l12.696,0.426   c4.136,0.137,8.276,0.074,12.407-0.19c-1.649-26.479-1.429-53.117,0.665-79.514l3.536,0.28c-2.08,26.209-2.298,52.665-0.665,78.957   c5.224-0.481,10.422-1.282,15.555-2.401l4.024-0.88l-11.642,19.305l-3.038-1.832l7.432-12.323c-4.004,0.745-8.046,1.303-12.1,1.672   c0.552,8.049,1.277,16.083,2.178,24.088L152.396,432.542z M144.323,408.354c2.717,2.289,4.831,5.308,6.53,8.706   c-0.252-2.981-0.481-5.962-0.686-8.949C148.221,408.235,146.272,408.317,144.323,408.354z"></path>
</g>
<g>
	<path fill="#78A9EF" d="M278.284,162.62l-31.49-24.008l-29.939,21.933l1.071-55.144l30.231-18.133l29.935,16.895L278.284,162.62z    M246.837,134.182l27.878,21.254l-0.161-49.198l-26.342-14.866l-26.777,16.062l-0.894,46.015L246.837,134.182z"></path>
</g>
<g>
	<polygon fill="#78A9EF" points="247.204,181.484 216.751,160.299 218.776,157.389 247.31,177.239 276.132,159.263 278.01,162.273     "></polygon>
</g>
<g>
	
		<rect x="245.289" y="89.468" transform="matrix(1 0.0044 -0.0044 1 0.4991 -1.086)" fill="#78A9EF" width="3.547" height="46.831"></rect>
</g>
<g>
	<path fill="#78A9EF" d="M261.038,343.57c-8.965,0-17.933-0.52-26.819-1.557c-1.945-0.227-3.339-1.988-3.111-3.933   c0.227-1.947,1.995-3.348,3.933-3.112c14.627,1.706,29.483,1.965,44.16,0.773c1.94-0.17,3.664,1.293,3.822,3.247   c0.16,1.953-1.295,3.662-3.247,3.822C273.555,343.318,267.296,343.57,261.038,343.57z"></path>
</g>
<g>
	<path fill="#78A9EF" d="M316.774,479.592c-8.97,0-17.94-0.52-26.826-1.557c-1.945-0.227-3.339-1.988-3.111-3.933   c0.227-1.947,2.006-3.355,3.933-3.112c14.622,1.708,29.479,1.965,44.16,0.775c1.958-0.174,3.664,1.295,3.822,3.247   c0.16,1.953-1.295,3.664-3.247,3.822C329.282,479.34,323.027,479.592,316.774,479.592z"></path>
</g>
<g>
	<path fill="#78A9EF" d="M316.774,497.395c-8.97,0-17.94-0.52-26.826-1.557c-1.945-0.227-3.339-1.988-3.111-3.933   c0.227-1.947,2.006-3.352,3.933-3.112c14.622,1.708,29.479,1.967,44.16,0.775c1.958-0.184,3.664,1.295,3.822,3.247   c0.16,1.953-1.295,3.664-3.247,3.822C329.282,497.142,323.027,497.395,316.774,497.395z"></path>
</g>
<g>
	<path fill="#78A9EF" d="M257.195,365.126c-1.821,0-3.369-1.394-3.529-3.242c-1.344-15.59-1.098-31.377,0.732-46.923   c0.229-1.945,1.984-3.346,3.937-3.109c1.945,0.229,3.336,1.992,3.107,3.937c-1.773,15.07-2.013,30.373-0.709,45.484   c0.168,1.953-1.277,3.669-3.229,3.838C257.401,365.122,257.298,365.126,257.195,365.126z"></path>
</g>
<g>
	<path fill="#78A9EF" d="M226.072,407.906c-22.584,0-46.589-5.976-46.589-17.051c0-11.075,24.005-17.051,46.589-17.051   s46.589,5.976,46.589,17.051C272.661,401.929,248.656,407.906,226.072,407.906z M226.072,377.348   c-25.365,0-43.042,7.118-43.042,13.504s17.677,13.505,43.042,13.505s43.042-7.118,43.042-13.505   C269.114,384.466,251.437,377.348,226.072,377.348z"></path>
</g>
<g>
	<path fill="#78A9EF" d="M226.072,525.706c-22.584,0-46.589-5.976-46.589-17.051h3.547c0,6.388,17.677,13.504,43.042,13.504   s43.042-7.118,43.042-13.504h3.547C272.661,519.729,248.656,525.706,226.072,525.706z"></path>
</g>
<g>
	<rect x="269.114" y="394.867" fill="#78A9EF" width="3.547" height="118.557"></rect>
</g>
<g>
	<rect x="178.463" y="391.202" fill="#78A9EF" width="3.547" height="118.557"></rect>
</g>
<path id="texture_6_-i6" fill="#D62929" d="M488.694,361.104c-0.36,0.117-0.58,0.426-0.463,0.786l0,0  c0.117,0.36,0.426,0.58,0.786,0.463l0,0c0.36-0.117,0.58-0.426,0.463-0.786l0,0C489.364,361.205,489.054,360.987,488.694,361.104  L488.694,361.104z M431.409,388.355c-0.309-0.218-0.67-0.103-0.888,0.207c-0.218,0.309-0.103,0.67,0.207,0.888l0,0  c0.309,0.218,0.67,0.103,0.888-0.207C432.003,388.96,431.719,388.574,431.409,388.355L431.409,388.355L431.409,388.355z   M445.666,396.015c-0.309-0.218-0.67-0.103-0.888,0.207c-0.218,0.309-0.103,0.67,0.207,0.888l0,0  c0.309,0.218,0.67,0.103,0.888-0.207l0,0C446.066,396.761,445.974,396.233,445.666,396.015L445.666,396.015z M458.663,366.977  c-0.218,0.309-0.27,0.644-0.153,1.006c0.309,0.218,0.644,0.27,1.005,0.152c0.218-0.309,0.27-0.644,0.128-0.837  C459.385,366.745,459.049,366.693,458.663,366.977z M468.894,379.676c-0.218,0.309-0.27,0.644-0.153,1.006  c0.309,0.218,0.644,0.27,1.005,0.153c0.218-0.309,0.27-0.644,0.128-0.837C469.615,379.444,469.114,379.368,468.894,379.676  L468.894,379.676z M429.017,420.896c-0.335-0.051-0.722,0.232-0.771,0.568c-0.051,0.335,0.232,0.722,0.568,0.771l0,0  c0.335,0.051,0.722-0.232,0.771-0.568l0,0C429.636,421.334,429.352,420.947,429.017,420.896z M445.197,422.678  c-0.335-0.051-0.722,0.232-0.771,0.568c-0.051,0.335,0.232,0.722,0.568,0.771c0.335,0.051,0.722-0.232,0.771-0.568l0,0  C445.816,423.116,445.533,422.729,445.197,422.678L445.197,422.678L445.197,422.678z M471.261,357.417  c-0.193,0.142-0.438,0.619-0.128,0.837c0.142,0.193,0.619,0.438,0.837,0.128c0.193-0.142,0.436-0.619,0.128-0.837l0,0  C471.983,357.183,471.648,357.131,471.261,357.417L471.261,357.417z M479.366,369.449c-0.193,0.142-0.436,0.619-0.128,0.837  c0.142,0.193,0.452,0.411,0.837,0.128c0.193-0.142,0.411-0.452,0.128-0.837l0,0C479.894,369.359,479.559,369.307,479.366,369.449  L479.366,369.449L479.366,369.449z M437.721,407.655c-0.335-0.051-0.695,0.066-0.747,0.401s0.09,0.528,0.401,0.747l0,0  c0.335,0.051,0.695-0.066,0.747-0.401l0,0C438.171,408.067,438.056,407.707,437.721,407.655L437.721,407.655z M451.855,410.496  c-0.335-0.051-0.695,0.066-0.747,0.401c-0.051,0.335,0.09,0.528,0.401,0.747l0,0c0.335,0.051,0.695-0.066,0.747-0.401l0,0  C452.305,410.91,452.19,410.548,451.855,410.496L451.855,410.496z M456.506,382.244c-0.309-0.218-0.67-0.103-0.888,0.207  s-0.103,0.67,0.208,0.888c0.309,0.218,0.67,0.103,0.888-0.207S456.815,382.462,456.506,382.244L456.506,382.244z M457.547,350.697  c-0.309-0.218-0.67-0.103-0.888,0.207c-0.218,0.309-0.103,0.67,0.207,0.888c0.309,0.218,0.67,0.103,0.888-0.207  C457.973,351.275,457.858,350.915,457.547,350.697L457.547,350.697z M471.38,360.004c-0.309-0.218-0.67-0.103-0.888,0.207  c-0.218,0.309-0.103,0.67,0.207,0.888c0.309,0.218,0.67,0.103,0.888-0.207C471.806,360.582,471.69,360.224,471.38,360.004  L471.38,360.004z M485.408,369.171c-0.309-0.218-0.67-0.103-0.888,0.207s-0.103,0.67,0.208,0.888  c0.309,0.218,0.67,0.103,0.888-0.207C485.665,369.724,485.549,369.364,485.408,369.171z M443.454,419.498  c-0.36,0.117-0.58,0.426-0.463,0.786c0.117,0.36,0.426,0.58,0.786,0.463s0.58-0.426,0.463-0.786  C444.293,419.626,443.816,419.383,443.454,419.498L443.454,419.498z M506.467,359.187c-0.284-0.387-0.619-0.438-1.005-0.152   M451.601,384.066c-0.335-0.051-0.722,0.232-0.771,0.568c-0.051,0.335,0.232,0.722,0.568,0.771s0.722-0.232,0.771-0.568l0,0  C452.22,384.504,451.936,384.117,451.601,384.066L451.601,384.066L451.601,384.066z M450.941,372.654  c-0.335-0.051-0.722,0.232-0.771,0.568c-0.051,0.335,0.232,0.722,0.568,0.771s0.695-0.066,0.771-0.568  C451.56,373.092,451.277,372.705,450.941,372.654L450.941,372.654z M467.152,376.499c-0.335-0.051-0.722,0.232-0.771,0.568  c-0.051,0.335,0.066,0.695,0.568,0.771c0.335,0.051,0.722-0.232,0.94-0.543C467.771,376.935,467.486,376.548,467.152,376.499  L467.152,376.499z M487.243,354.884c-0.309-0.218-0.67-0.103-0.888,0.207l0,0c-0.218,0.309-0.103,0.67,0.181,1.055  c0.309,0.218,0.67,0.103,1.055-0.181C487.669,355.462,487.553,355.102,487.243,354.884L487.243,354.884z M489.171,361.347  c-0.335-0.051-0.529,0.09-0.722,0.232c-0.051,0.335,0.09,0.528,0.232,0.722c0.335,0.051,0.528-0.09,0.722-0.232l0,0  C489.454,361.733,489.339,361.373,489.171,361.347L489.171,361.347L489.171,361.347z"></path>
<path fill="#9cfba7" d="M319.911,363.136h86.511l-41.044,41.044C365.378,404.18,319.911,361.93,319.911,363.136z"></path>
<path fill="#9cfba7" d="M369.574,401.646c0,0-40.818,37.93-40.818,36.848h77.666"></path>
<polygon fill="#D62929" points="408.965,445.903 330.132,445.903 325.743,435.308 391.437,369.612 317.416,369.612 317.416,357.199   406.422,357.199 410.811,367.793 345.117,433.489 408.965,433.489 "></polygon>

            </g>
        </g>
    </g>
    
    <!-- ITEM 5 -->
    <g>
        <defs>
            <clipPath id="clip-path-id-viewbox-item-5">
                <rect x="0.0" y="0.0" width="291.115" height="77.998"/>
            </clipPath>
        </defs>
        <g transform="translate(790.0 233.0) rotate(0.0 124.5 33.0) scale(0.855332085258403 0.84617554296264)">
            <g clip-path="url(#clip-path-id-viewbox-item-5)" transform="translate(-0.0 -0.0)">
                
<g>
	<path style="fill:#FFFFFF;" d="M47.003,1.819C45.876,1.725,19.265-0.45,7.752,1.856c-1.026,0.206-1.79,1.07-1.867,2.114   L0.806,72.607c-0.049,0.669,0.192,1.327,0.662,1.806c0.47,0.478,1.126,0.729,1.793,0.694c0.304-0.017,30.43-1.666,38.554-0.042   c0.154,0.031,0.307,0.046,0.459,0.046c1.089,0,2.062-0.767,2.284-1.875c0.253-1.262-0.566-2.491-1.829-2.743   c-7.288-1.459-29.368-0.551-37.077-0.178l2.231-30.15c4.88-0.259,13.542-0.554,16.62,0.076c0.158,0.032,0.315,0.048,0.47,0.048   c1.085-0.001,2.056-0.761,2.282-1.865c0.258-1.262-0.556-2.494-1.817-2.752c-3.727-0.76-12.636-0.431-17.208-0.196l2.171-29.341   c11.734-1.673,35.96,0.31,36.215,0.33c1.296,0.121,2.41-0.847,2.517-2.13C49.24,3.052,48.286,1.925,47.003,1.819z"></path>
	<path style="fill:#FFFFFF;" d="M73.515,38.757c0.187,0,0.377-0.023,0.567-0.071c0.065-0.017,6.598-1.597,18.101,0.046   c1.275,0.182,2.455-0.703,2.637-1.979c0.182-1.274-0.704-2.455-1.979-2.637c-12.396-1.771-19.591-0.029-19.89,0.046   c-1.249,0.312-2.009,1.578-1.696,2.827C71.52,38.05,72.47,38.757,73.515,38.757z"></path>
	<path style="fill:#FFFFFF;" d="M102.003,44.491c-18.24-3.667-28.612-1.21-29.044-1.103c-1.251,0.307-2.014,1.571-1.707,2.821   c0.308,1.25,1.575,2.015,2.821,1.707c0.096-0.024,9.777-2.316,27.011,1.147c0.155,0.031,0.31,0.046,0.461,0.046   c1.088,0,2.061-0.766,2.284-1.873C104.083,45.974,103.266,44.745,102.003,44.491z"></path>
	<path style="fill:#FFFFFF;" d="M176.728,28.317c-7.778-3.175-14.132,0.359-17.759,4.019c-1.131-1.582-2.544-2.914-4.302-3.896   c-6.101-3.406-11.99-0.001-15.997,3.659l0.158-1.352c0.15-1.28-0.766-2.437-2.045-2.587c-1.287-0.143-2.437,0.766-2.587,2.045   l-4.676,40.009c-0.15,1.28,0.766,2.437,2.045,2.587c0.093,0.011,0.184,0.016,0.274,0.016c1.167,0,2.174-0.874,2.313-2.061   l3.578-30.611c1.519-2.096,8.513-11.068,14.664-7.634c9.64,5.385,5.237,28.763,2.727,37.316c-0.363,1.236,0.345,2.531,1.579,2.894   c0.219,0.065,0.441,0.095,0.659,0.095c1.007,0,1.937-0.658,2.235-1.674c0.322-1.095,6.204-21.513,1.659-34.332   c0.654-0.802,1.782-2.023,3.309-3.066c3.255-2.225,6.756-2.598,10.404-1.11c10.567,4.312,9.277,30.605,7.888,40.372   c-0.181,1.274,0.705,2.455,1.979,2.637c0.112,0.016,0.222,0.024,0.332,0.024c1.141,0,2.14-0.839,2.305-2.002   c0.055-0.386,1.343-9.566,0.83-19.647C187.578,39.803,183.685,31.156,176.728,28.317z"></path>
	<path style="fill:#FFFFFF;" d="M237.219,62.577c-7.032,6.491-13.957,8.365-18.995,5.141c-5.475-3.503-7.269-12.222-4.361-21.2   c4.459-13.769,11.091-16.318,13.735-16.775c2.607-0.449,5.078,0.374,6.445,2.155c0.784,1.021,2.248,1.214,3.27,0.428   c1.021-0.785,1.213-2.248,0.428-3.27c-2.426-3.157-6.619-4.653-10.936-3.908c-4.322,0.746-12.325,4.328-17.379,19.934   c-3.617,11.169-1.091,21.845,6.284,26.565c2.361,1.51,5.001,2.252,7.798,2.252c5.335,0,11.241-2.696,16.873-7.895   c0.946-0.873,1.005-2.348,0.131-3.295C239.642,61.763,238.167,61.702,237.219,62.577z"></path>
	<path style="fill:#FFFFFF;" d="M289.41,24.952c-0.455-1.204-1.8-1.813-3.005-1.358c-7.519,2.839-19.424,4.158-22.176,3.333   c0.642-0.813,2.889-2.137,4.058-2.826c3.906-2.301,8.768-5.165,9.047-10.599c0.137-2.676-0.767-5.182-2.546-7.055   c-1.681-1.77-3.963-2.785-6.261-2.785h-0.001c-2.846,0-4.497,1.266-5.38,2.329c-2.486,2.989-1.718,7.6-1.622,8.116   c0.235,1.264,1.443,2.108,2.718,1.866c1.266-0.235,2.102-1.451,1.866-2.718c-0.168-0.905-0.244-3.24,0.623-4.283   c0.231-0.278,0.668-0.647,1.795-0.647h0.001c1.01,0,2.087,0.499,2.88,1.333c0.63,0.663,1.362,1.827,1.271,3.604   c-0.15,2.929-3.509,4.908-6.756,6.821c-3.203,1.886-6.514,3.837-6.529,7.193c-0.006,1.33,0.619,2.498,1.759,3.29   c1.321,0.918,3.526,1.273,6.129,1.273c7.489,0,18.272-2.94,20.772-3.884C289.257,27.502,289.865,26.157,289.41,24.952z"></path>
	<g>
		<path style="fill:#FF6338;" d="M48.558,4.15C47.431,4.057,20.819,1.882,9.307,4.187c-1.026,0.206-1.79,1.07-1.867,2.114    L2.361,74.938c-0.049,0.669,0.192,1.327,0.662,1.806c0.47,0.478,1.126,0.729,1.793,0.694c0.304-0.017,30.43-1.666,38.554-0.042    c0.154,0.031,0.307,0.046,0.459,0.046c1.089,0,2.062-0.767,2.284-1.875c0.253-1.262-0.566-2.491-1.829-2.743    c-7.288-1.459-29.368-0.551-37.077-0.178l2.231-30.15c4.88-0.259,13.542-0.554,16.62,0.076c0.158,0.032,0.315,0.048,0.47,0.048    c1.085-0.001,2.056-0.761,2.282-1.865c0.258-1.262-0.556-2.494-1.817-2.752c-3.727-0.76-12.636-0.431-17.208-0.196l2.171-29.341    c11.734-1.673,35.96,0.31,36.215,0.33c1.296,0.121,2.41-0.847,2.517-2.13C50.795,5.384,49.84,4.257,48.558,4.15z"></path>
		<path style="fill:#FF6338;" d="M75.069,41.089c0.187,0,0.377-0.023,0.567-0.071c0.065-0.017,6.598-1.597,18.101,0.046    c1.275,0.182,2.455-0.703,2.637-1.979c0.182-1.274-0.704-2.455-1.979-2.637C82,34.677,74.805,36.42,74.506,36.495    c-1.249,0.312-2.009,1.578-1.696,2.827C73.074,40.381,74.024,41.089,75.069,41.089z"></path>
		<path style="fill:#FF6338;" d="M103.558,46.823c-18.24-3.667-28.612-1.21-29.044-1.103c-1.251,0.307-2.014,1.571-1.707,2.821    c0.308,1.25,1.575,2.015,2.821,1.707c0.096-0.024,9.777-2.316,27.011,1.147c0.155,0.031,0.31,0.046,0.461,0.046    c1.088,0,2.061-0.766,2.284-1.873C105.638,48.306,104.82,47.077,103.558,46.823z"></path>
		<path style="fill:#FF6338;" d="M178.282,30.649c-7.778-3.175-14.132,0.359-17.759,4.019c-1.131-1.582-2.544-2.914-4.302-3.896    c-6.101-3.406-11.99-0.001-15.997,3.659l0.158-1.352c0.15-1.28-0.766-2.437-2.045-2.587c-1.287-0.143-2.437,0.766-2.587,2.045    l-4.676,40.009c-0.15,1.28,0.766,2.437,2.045,2.587c0.093,0.011,0.184,0.016,0.274,0.016c1.167,0,2.174-0.874,2.313-2.061    l3.578-30.611c1.519-2.096,8.513-11.068,14.664-7.634c9.64,5.385,5.237,28.763,2.727,37.316c-0.363,1.236,0.345,2.531,1.579,2.894    c0.219,0.065,0.441,0.095,0.659,0.095c1.007,0,1.937-0.658,2.235-1.674c0.322-1.095,6.204-21.513,1.659-34.332    c0.654-0.802,1.782-2.023,3.309-3.066c3.255-2.225,6.756-2.598,10.404-1.11c10.567,4.312,9.277,30.605,7.888,40.372    c-0.181,1.274,0.705,2.455,1.979,2.637c0.112,0.016,0.222,0.024,0.332,0.024c1.141,0,2.14-0.839,2.305-2.002    c0.055-0.386,1.343-9.566,0.83-19.647C189.132,42.135,185.239,33.488,178.282,30.649z"></path>
		<path style="fill:#FF6338;" d="M238.774,64.908c-7.032,6.491-13.957,8.365-18.995,5.141c-5.475-3.503-7.269-12.222-4.361-21.2    c4.459-13.769,11.091-16.318,13.735-16.775c2.607-0.449,5.078,0.374,6.445,2.155c0.784,1.021,2.248,1.214,3.27,0.428    c1.021-0.785,1.213-2.248,0.428-3.27c-2.426-3.157-6.619-4.653-10.936-3.908c-4.322,0.746-12.325,4.328-17.379,19.934    c-3.617,11.169-1.091,21.845,6.284,26.565c2.361,1.51,5.001,2.252,7.798,2.252c5.335,0,11.241-2.696,16.873-7.895    c0.946-0.873,1.005-2.348,0.131-3.295C241.196,64.095,239.721,64.034,238.774,64.908z"></path>
		<path style="fill:#FF6338;" d="M290.965,27.284c-0.455-1.204-1.8-1.813-3.005-1.358c-7.519,2.839-19.424,4.158-22.176,3.333    c0.642-0.813,2.889-2.137,4.058-2.826c3.906-2.301,8.768-5.165,9.047-10.599c0.137-2.676-0.767-5.182-2.546-7.055    c-1.681-1.77-3.963-2.785-6.261-2.785h-0.001c-2.846,0-4.497,1.266-5.38,2.329c-2.486,2.989-1.718,7.6-1.622,8.116    c0.235,1.264,1.443,2.108,2.718,1.866c1.266-0.235,2.102-1.451,1.866-2.718c-0.168-0.905-0.244-3.24,0.623-4.283    c0.231-0.278,0.668-0.647,1.795-0.647h0.001c1.01,0,2.087,0.499,2.88,1.333c0.63,0.663,1.362,1.827,1.271,3.604    c-0.15,2.929-3.509,4.908-6.756,6.821c-3.203,1.886-6.514,3.837-6.529,7.193c-0.006,1.33,0.619,2.498,1.759,3.29    c1.321,0.918,3.526,1.273,6.129,1.273c7.489,0,18.272-2.939,20.772-3.884C290.811,29.834,291.419,28.488,290.965,27.284z"></path>
	</g>
	<path style="fill:none;stroke:#000000;stroke-width:1.6;stroke-miterlimit:10;" d="M47.003,1.819   C45.876,1.725,19.265-0.45,7.752,1.856c-1.026,0.206-1.79,1.07-1.867,2.114L0.806,72.607c-0.049,0.669,0.192,1.327,0.662,1.806   c0.47,0.478,1.126,0.729,1.793,0.694c0.304-0.017,30.43-1.666,38.554-0.042c0.154,0.031,0.307,0.046,0.459,0.046   c1.089,0,2.062-0.767,2.284-1.875c0.253-1.262-0.566-2.491-1.829-2.743c-7.288-1.459-29.368-0.551-37.077-0.178l2.231-30.15   c4.88-0.259,13.542-0.554,16.62,0.076c0.158,0.032,0.315,0.048,0.47,0.048c1.085-0.001,2.056-0.761,2.282-1.865   c0.258-1.262-0.556-2.494-1.817-2.752c-3.727-0.76-12.636-0.431-17.208-0.196l2.171-29.341c11.734-1.673,35.96,0.31,36.215,0.33   c1.296,0.121,2.41-0.847,2.517-2.13C49.24,3.052,48.286,1.925,47.003,1.819z"></path>
	<path style="fill:none;stroke:#000000;stroke-width:1.6;stroke-miterlimit:10;" d="M73.515,38.757c0.187,0,0.377-0.023,0.567-0.071   c0.065-0.017,6.598-1.597,18.101,0.046c1.275,0.182,2.455-0.703,2.637-1.979c0.182-1.274-0.704-2.455-1.979-2.637   c-12.396-1.771-19.591-0.029-19.89,0.046c-1.249,0.312-2.009,1.578-1.696,2.827C71.52,38.05,72.47,38.757,73.515,38.757z"></path>
	<path style="fill:none;stroke:#000000;stroke-width:1.6;stroke-miterlimit:10;" d="M102.003,44.491   c-18.24-3.667-28.612-1.21-29.044-1.103c-1.251,0.307-2.014,1.571-1.707,2.821c0.308,1.25,1.575,2.015,2.821,1.707   c0.096-0.024,9.777-2.316,27.011,1.147c0.155,0.031,0.31,0.046,0.461,0.046c1.088,0,2.061-0.766,2.284-1.873   C104.083,45.974,103.266,44.745,102.003,44.491z"></path>
	<path style="fill:none;stroke:#000000;stroke-width:1.6;stroke-miterlimit:10;" d="M176.728,28.317   c-7.778-3.175-14.132,0.359-17.759,4.019c-1.131-1.582-2.544-2.914-4.302-3.896c-6.101-3.406-11.99-0.001-15.997,3.659l0.158-1.352   c0.15-1.28-0.766-2.437-2.045-2.587c-1.287-0.143-2.437,0.766-2.587,2.045l-4.676,40.009c-0.15,1.28,0.766,2.437,2.045,2.587   c0.093,0.011,0.184,0.016,0.274,0.016c1.167,0,2.174-0.874,2.313-2.061l3.578-30.611c1.519-2.096,8.513-11.068,14.664-7.634   c9.64,5.385,5.237,28.763,2.727,37.316c-0.363,1.236,0.345,2.531,1.579,2.894c0.219,0.065,0.441,0.095,0.659,0.095   c1.007,0,1.937-0.658,2.235-1.674c0.322-1.095,6.204-21.513,1.659-34.332c0.654-0.802,1.782-2.023,3.309-3.066   c3.255-2.225,6.756-2.598,10.404-1.11c10.567,4.312,9.277,30.605,7.888,40.372c-0.181,1.274,0.705,2.455,1.979,2.637   c0.112,0.016,0.222,0.024,0.332,0.024c1.141,0,2.14-0.839,2.305-2.002c0.055-0.386,1.343-9.566,0.83-19.647   C187.578,39.803,183.685,31.156,176.728,28.317z"></path>
	<path style="fill:none;stroke:#000000;stroke-width:1.6;stroke-miterlimit:10;" d="M237.219,62.577   c-7.032,6.491-13.957,8.365-18.995,5.141c-5.475-3.503-7.269-12.222-4.361-21.2c4.459-13.769,11.091-16.318,13.735-16.775   c2.607-0.449,5.078,0.374,6.445,2.155c0.784,1.021,2.248,1.214,3.27,0.428c1.021-0.785,1.213-2.248,0.428-3.27   c-2.426-3.157-6.619-4.653-10.936-3.908c-4.322,0.746-12.325,4.328-17.379,19.934c-3.617,11.169-1.091,21.845,6.284,26.565   c2.361,1.51,5.001,2.252,7.798,2.252c5.335,0,11.241-2.696,16.873-7.895c0.946-0.873,1.005-2.348,0.131-3.295   C239.642,61.763,238.167,61.702,237.219,62.577z"></path>
	<path style="fill:none;stroke:#000000;stroke-width:1.6;stroke-miterlimit:10;" d="M289.41,24.952   c-0.455-1.204-1.8-1.813-3.005-1.358c-7.519,2.839-19.424,4.158-22.176,3.333c0.642-0.813,2.889-2.137,4.058-2.826   c3.906-2.301,8.768-5.165,9.047-10.599c0.137-2.676-0.767-5.182-2.546-7.055c-1.681-1.77-3.963-2.785-6.261-2.785h-0.001   c-2.846,0-4.497,1.266-5.38,2.329c-2.486,2.989-1.718,7.6-1.622,8.116c0.235,1.264,1.443,2.108,2.718,1.866   c1.266-0.235,2.102-1.451,1.866-2.718c-0.168-0.905-0.244-3.24,0.623-4.283c0.231-0.278,0.668-0.647,1.795-0.647h0.001   c1.01,0,2.087,0.499,2.88,1.333c0.63,0.663,1.362,1.827,1.271,3.604c-0.15,2.929-3.509,4.908-6.756,6.821   c-3.203,1.886-6.514,3.837-6.529,7.193c-0.006,1.33,0.619,2.498,1.759,3.29c1.321,0.918,3.526,1.273,6.129,1.273   c7.489,0,18.272-2.94,20.772-3.884C289.257,27.502,289.865,26.157,289.41,24.952z"></path>
</g>

            </g>
        </g>
    </g>
    
</svg>